<svg width="20" height="20" viewBox="0 0 20 20" fill="none" xmlns="http://www.w3.org/2000/svg">
<path d="M18.9474 13.6842V13.1579C18.9474 12.46 18.6701 11.7906 18.1766 11.2971C17.6831 10.8036 17.0137 10.5263 16.3158 10.5263C15.6179 10.5263 14.9485 10.8036 14.455 11.2971C13.9615 11.7906 13.6842 12.46 13.6842 13.1579V13.6842C13.1053 13.6842 12.6316 14.1579 12.6316 14.7368V18.9474C12.6316 19.5263 13.1053 20 13.6842 20H18.9474C19.5263 20 20 19.5263 20 18.9474V14.7368C20 14.1579 19.5263 13.6842 18.9474 13.6842ZM17.8947 13.6842H14.7368V13.1579C14.7368 12.2842 15.4421 11.5789 16.3158 11.5789C17.1895 11.5789 17.8947 12.2842 17.8947 13.1579V13.6842ZM10.5263 16.8421H0V13.6842C0 10.8737 5.61053 9.47368 8.42105 9.47368C9.55789 9.47368 11.1579 9.70526 12.6316 10.1684C12.2211 10.6842 11.9263 11.3053 11.7474 11.9789C10.7263 11.6842 9.56842 11.4737 8.42105 11.4737C5.29474 11.4737 2 13.0105 2 13.6842V14.8421H10.5263V16.8421ZM8.42105 8.42105C10.7474 8.42105 12.6316 6.53684 12.6316 4.21053C12.6316 1.88421 10.7474 0 8.42105 0C6.09474 0 4.21053 1.88421 4.21053 4.21053C4.21053 6.53684 6.09474 8.42105 8.42105 8.42105ZM8.42105 2.10526C8.9794 2.10526 9.51488 2.32707 9.9097 2.72188C10.3045 3.11669 10.5263 3.65218 10.5263 4.21053C10.5263 4.76888 10.3045 5.30436 9.9097 5.69917C9.51488 6.09399 8.9794 6.31579 8.42105 6.31579C7.25263 6.31579 6.31579 5.37895 6.31579 4.21053C6.31579 3.04211 7.26316 2.10526 8.42105 2.10526Z" fill="#7D8597"/>
</svg>
