<svg width="42" height="41" viewBox="0 0 42 41" fill="none" xmlns="http://www.w3.org/2000/svg">
<path fill-rule="evenodd" clip-rule="evenodd" d="M20.625 0C9.23438 0 0 9.23438 0 20.625C0 32.0156 9.23438 41.25 20.625 41.25C32.0156 41.25 41.25 32.0156 41.25 20.625C41.25 9.23438 32.0156 0 20.625 0ZM22.5 28.125C22.5 28.6223 22.3025 29.0992 21.9508 29.4508C21.5992 29.8025 21.1223 30 20.625 30C20.1277 30 19.6508 29.8025 19.2992 29.4508C18.9475 29.0992 18.75 28.6223 18.75 28.125V22.5H13.125C12.6277 22.5 12.1508 22.3025 11.7992 21.9508C11.4475 21.5992 11.25 21.1223 11.25 20.625C11.25 20.1277 11.4475 19.6508 11.7992 19.2992C12.1508 18.9475 12.6277 18.75 13.125 18.75H18.75V13.125C18.75 12.6277 18.9475 12.1508 19.2992 11.7992C19.6508 11.4475 20.1277 11.25 20.625 11.25C21.1223 11.25 21.5992 11.4475 21.9508 11.7992C22.3025 12.1508 22.5 12.6277 22.5 13.125V18.75H28.125C28.6223 18.75 29.0992 18.9475 29.4508 19.2992C29.8025 19.6508 30 20.1277 30 20.625C30 21.1223 29.8025 21.5992 29.4508 21.9508C29.0992 22.3025 28.6223 22.5 28.125 22.5H22.5V28.125Z" fill="#3464DC"/>
</svg>
