<svg width="40" height="40" viewBox="0 0 40 40" fill="none" xmlns="http://www.w3.org/2000/svg">
<path d="M6.25 0C5.835 0 5.425 0.04 5.0325 0.12L5.5175 2.57C5.7588 2.52287 6.00414 2.49942 6.25 2.5H7.395V0H6.25ZM11.98 0H9.6875V2.5H11.98V0ZM16.5625 0H14.27V2.5H16.5625V0ZM21.145 0H18.855V2.5H21.145V0ZM25.73 0H23.4375V2.5H25.73V0ZM30.3125 0H28.02V2.5H30.3125V0ZM33.75 0H32.605V2.5H33.75C34 2.5 34.2475 2.525 34.4825 2.5725L34.9675 0.12C34.5665 0.0404396 34.1588 0.000248627 33.75 0V0ZM38.9475 2.775C38.4906 2.09363 37.9045 1.50843 37.2225 1.0525L35.8325 3.13C36.2425 3.405 36.595 3.7575 36.87 4.1675L38.945 2.7775L38.9475 2.775ZM2.775 1.0525C2.09363 1.50942 1.50843 2.09547 1.0525 2.7775L3.13 4.1675C3.405 3.7575 3.7575 3.405 4.1675 3.13L2.775 1.055V1.0525ZM40 6.25C40 5.835 39.96 5.425 39.88 5.0325L37.43 5.5175C37.475 5.7525 37.5 5.9975 37.5 6.25V7.395H40V6.25ZM0.12 5.0325C0.0404396 5.43346 0.000248627 5.84123 0 6.25L0 7.395H2.5V6.25C2.5 6 2.525 5.7525 2.5725 5.5175L0.12 5.0325ZM0 9.6875V11.98H2.5V9.6875H0ZM40 11.98V9.6875H37.5V11.98H40ZM0 14.27V16.5625H2.5V14.27H0ZM40 16.5625V14.27H37.5V16.5625H40ZM0 18.855V21.145H2.5V18.855H0ZM37.5 21.145H40V18.855H37.5V21.145ZM0 23.4375V25.73H2.5V23.4375H0ZM40 25.73V23.4375H37.5V25.73H40ZM0 28.02V30.3125H2.5V28.02H0ZM40 30.3125V28.02H37.5V30.3125H40ZM0 32.605V33.75C0 34.165 0.04 34.575 0.12 34.9675L2.57 34.4825C2.52287 34.2412 2.49942 33.9959 2.5 33.75V32.605H0ZM40 33.75V32.605H37.5V33.75C37.5 34 37.475 34.2475 37.4275 34.4825L39.88 34.9675C39.96 34.5725 40 34.1675 40 33.75ZM1.0525 37.225C1.51 37.905 2.095 38.49 2.7775 38.9475L4.1675 36.87C3.75714 36.5954 3.40465 36.2429 3.13 35.8325L1.055 37.2225L1.0525 37.225ZM37.225 38.9475C37.905 38.49 38.49 37.905 38.9475 37.2225L36.87 35.8325C36.595 36.2425 36.2425 36.595 35.8325 36.87L37.2225 38.945L37.225 38.9475ZM5.0325 39.88C5.4275 39.96 5.8325 40 6.25 40H7.395V37.5H6.25C6 37.5 5.7525 37.475 5.5175 37.4275L5.0325 39.88ZM33.75 40C34.165 40 34.575 39.96 34.9675 39.88L34.4825 37.43C34.2412 37.4771 33.9959 37.5006 33.75 37.5H32.605V40H33.75ZM9.6875 40H11.98V37.5H9.6875V40ZM14.27 40H16.5625V37.5H14.27V40ZM18.855 37.5V40H21.145V37.5H18.855ZM23.4375 40H25.73V37.5H23.4375V40ZM28.02 40H30.3125V37.5H28.02V40ZM21.25 11.25C21.25 10.9185 21.1183 10.6005 20.8839 10.3661C20.6495 10.1317 20.3315 10 20 10C19.6685 10 19.3505 10.1317 19.1161 10.3661C18.8817 10.6005 18.75 10.9185 18.75 11.25V18.75H11.25C10.9185 18.75 10.6005 18.8817 10.3661 19.1161C10.1317 19.3505 10 19.6685 10 20C10 20.3315 10.1317 20.6495 10.3661 20.8839C10.6005 21.1183 10.9185 21.25 11.25 21.25H18.75V28.75C18.75 29.0815 18.8817 29.3995 19.1161 29.6339C19.3505 29.8683 19.6685 30 20 30C20.3315 30 20.6495 29.8683 20.8839 29.6339C21.1183 29.3995 21.25 29.0815 21.25 28.75V21.25H28.75C29.0815 21.25 29.3995 21.1183 29.6339 20.8839C29.8683 20.6495 30 20.3315 30 20C30 19.6685 29.8683 19.3505 29.6339 19.1161C29.3995 18.8817 29.0815 18.75 28.75 18.75H21.25V11.25Z" fill="#3464DC"/>
</svg>
