<svg width="20" height="20" viewBox="0 0 20 20" fill="none" xmlns="http://www.w3.org/2000/svg">
<path d="M18.0254 13.709H6.39453L6.97852 12.5195L16.6816 12.502C17.0098 12.502 17.291 12.2676 17.3496 11.9434L18.6934 4.42187C18.7285 4.22461 18.6758 4.02148 18.5469 3.86719C18.4832 3.79125 18.4037 3.73008 18.314 3.68792C18.2243 3.64577 18.1265 3.62363 18.0273 3.62305L5.68359 3.58203L5.57812 3.08594C5.51172 2.76953 5.22656 2.53906 4.90234 2.53906H1.88477C1.70191 2.53906 1.52655 2.6117 1.39725 2.741C1.26795 2.8703 1.19531 3.04566 1.19531 3.22852C1.19531 3.41137 1.26795 3.58674 1.39725 3.71603C1.52655 3.84533 1.70191 3.91797 1.88477 3.91797H4.34375L4.80469 6.10937L5.93945 11.6035L4.47852 13.9883C4.40265 14.0907 4.35695 14.2123 4.3466 14.3393C4.33624 14.4663 4.36164 14.5937 4.41992 14.707C4.53711 14.9395 4.77344 15.0859 5.03516 15.0859H6.26172C6.00023 15.4332 5.85899 15.8563 5.85938 16.291C5.85938 17.3965 6.75781 18.2949 7.86328 18.2949C8.96875 18.2949 9.86719 17.3965 9.86719 16.291C9.86719 15.8555 9.72266 15.4316 9.46484 15.0859H12.6113C12.3498 15.4332 12.2086 15.8563 12.209 16.291C12.209 17.3965 13.1074 18.2949 14.2129 18.2949C15.3184 18.2949 16.2168 17.3965 16.2168 16.291C16.2168 15.8555 16.0723 15.4316 15.8145 15.0859H18.0273C18.4062 15.0859 18.7168 14.7773 18.7168 14.3965C18.7157 14.2138 18.6423 14.039 18.5128 13.9102C18.3833 13.7814 18.2081 13.7091 18.0254 13.709ZM5.9707 4.94141L17.2168 4.97852L16.1152 11.1465L7.28125 11.1621L5.9707 4.94141ZM7.86328 16.9082C7.52344 16.9082 7.24609 16.6309 7.24609 16.291C7.24609 15.9512 7.52344 15.6738 7.86328 15.6738C8.20312 15.6738 8.48047 15.9512 8.48047 16.291C8.48047 16.4547 8.41544 16.6117 8.2997 16.7274C8.18395 16.8432 8.02697 16.9082 7.86328 16.9082ZM14.2129 16.9082C13.873 16.9082 13.5957 16.6309 13.5957 16.291C13.5957 15.9512 13.873 15.6738 14.2129 15.6738C14.5527 15.6738 14.8301 15.9512 14.8301 16.291C14.8301 16.4547 14.7651 16.6117 14.6493 16.7274C14.5336 16.8432 14.3766 16.9082 14.2129 16.9082Z" fill="#7D8597"/>
</svg>
