<svg width="23" height="18" viewBox="0 0 23 18" fill="none" xmlns="http://www.w3.org/2000/svg">
<path d="M21.94 16.144H20.2V4.48002C20.2086 4.38553 20.1744 4.29162 20.1029 4.21331C20.0314 4.13499 19.9268 4.0768 19.8056 4.04802L14.4 2.7261V0.998101C14.4 0.883528 14.3389 0.773647 14.2301 0.692631C14.1214 0.611615 13.9738 0.566101 13.82 0.566101H3.38001C3.22619 0.566101 3.07866 0.611615 2.96989 0.692631C2.86112 0.773647 2.80001 0.883528 2.80001 0.998101V16.144H1.06001C0.906185 16.144 0.75866 16.1895 0.649889 16.2706C0.541118 16.3516 0.480011 16.4614 0.480011 16.576C0.480011 16.6906 0.541118 16.8005 0.649889 16.8815C0.75866 16.9625 0.906185 17.008 1.06001 17.008H21.94C22.0938 17.008 22.2414 16.9625 22.3501 16.8815C22.4589 16.8005 22.52 16.6906 22.52 16.576C22.52 16.4614 22.4589 16.3516 22.3501 16.2706C22.2414 16.1895 22.0938 16.144 21.94 16.144ZM19.04 4.79106V16.144H14.4V3.6333L19.04 4.79106ZM8.02001 16.144V14.416H9.18001V16.144H8.02001ZM9.76001 13.552H7.44001C7.28619 13.552 7.13866 13.5975 7.02989 13.6786C6.92112 13.7596 6.86001 13.8694 6.86001 13.984V16.144H3.96001V1.45602H13.24V16.144H10.34V13.9581C10.3311 13.8481 10.2661 13.7447 10.1583 13.6693C10.0505 13.5938 9.90799 13.5518 9.76001 13.552ZM7.99681 11.392C7.99693 11.5037 7.93902 11.611 7.83522 11.6915C7.73141 11.7721 7.58978 11.8196 7.44001 11.824H6.28001C6.12619 11.824 5.97866 11.7785 5.86989 11.6975C5.76112 11.6165 5.70001 11.5066 5.70001 11.392C5.70001 11.2774 5.76112 11.1676 5.86989 11.0866C5.97866 11.0055 6.12619 10.96 6.28001 10.96H7.44001C7.58978 10.9645 7.73141 11.012 7.83522 11.0925C7.93902 11.173 7.99693 11.2804 7.99681 11.392ZM10.9896 11.824H9.76001C9.60619 11.824 9.45866 11.7785 9.34989 11.6975C9.24112 11.6165 9.18001 11.5066 9.18001 11.392C9.18001 11.2774 9.24112 11.1676 9.34989 11.0866C9.45866 11.0055 9.60619 10.96 9.76001 10.96H10.92C11.0738 10.96 11.2214 11.0055 11.3301 11.0866C11.4389 11.1676 11.5 11.2774 11.5 11.392C11.5 11.5066 11.4389 11.6165 11.3301 11.6975C11.2214 11.7785 11.0738 11.824 10.92 11.824H10.9896ZM7.99681 8.80002C7.99693 8.91166 7.93902 9.019 7.83522 9.09954C7.73141 9.18008 7.58978 9.22756 7.44001 9.23202H6.28001C6.12619 9.23202 5.97866 9.18651 5.86989 9.10549C5.76112 9.02448 5.70001 8.91459 5.70001 8.80002C5.70001 8.68545 5.76112 8.57557 5.86989 8.49455C5.97866 8.41353 6.12619 8.36802 6.28001 8.36802H7.44001C7.58978 8.37249 7.73141 8.41996 7.83522 8.5005C7.93902 8.58104 7.99693 8.68838 7.99681 8.80002ZM9.15681 8.80002C9.15675 8.74181 9.17248 8.68418 9.20307 8.63061C9.23366 8.57704 9.27847 8.52862 9.33481 8.48828C9.39115 8.44793 9.45786 8.41647 9.53092 8.39581C9.60399 8.37514 9.68192 8.36569 9.76001 8.36802H10.92C11.0738 8.36802 11.2214 8.41353 11.3301 8.49455C11.4389 8.57557 11.5 8.68545 11.5 8.80002C11.5 8.91459 11.4389 9.02448 11.3301 9.10549C11.2214 9.18651 11.0738 9.23202 10.92 9.23202H9.76001C9.61024 9.22756 9.46861 9.18008 9.36481 9.09954C9.261 9.019 9.20309 8.91166 9.20321 8.80002H9.15681ZM7.99681 6.20802C7.99693 6.31966 7.93902 6.427 7.83522 6.50754C7.73141 6.58808 7.58978 6.63556 7.44001 6.64002H6.28001C6.12619 6.64002 5.97866 6.59451 5.86989 6.51349C5.76112 6.43248 5.70001 6.32259 5.70001 6.20802C5.70001 6.09345 5.76112 5.98357 5.86989 5.90255C5.97866 5.82153 6.12619 5.77602 6.28001 5.77602H7.44001C7.58978 5.78049 7.73141 5.82796 7.83522 5.9085C7.93902 5.98904 7.99693 6.09638 7.99681 6.20802ZM9.15681 6.20802C9.15675 6.14981 9.17248 6.09218 9.20307 6.03861C9.23366 5.98504 9.27847 5.93662 9.33481 5.89628C9.39115 5.85593 9.45786 5.82447 9.53092 5.80381C9.60399 5.78314 9.68192 5.77369 9.76001 5.77602H10.92C11.0738 5.77602 11.2214 5.82153 11.3301 5.90255C11.4389 5.98357 11.5 6.09345 11.5 6.20802C11.5 6.32259 11.4389 6.43248 11.3301 6.51349C11.2214 6.59451 11.0738 6.64002 10.92 6.64002H9.76001C9.61024 6.63556 9.46861 6.58808 9.36481 6.50754C9.261 6.427 9.20309 6.31966 9.20321 6.20802H9.15681ZM7.99681 3.61602C7.99693 3.72766 7.93902 3.835 7.83522 3.91554C7.73141 3.99608 7.58978 4.04356 7.44001 4.04802H6.28001C6.12619 4.04802 5.97866 4.00251 5.86989 3.92149C5.76112 3.84048 5.70001 3.73059 5.70001 3.61602C5.70001 3.50145 5.76112 3.39157 5.86989 3.31055C5.97866 3.22954 6.12619 3.18402 6.28001 3.18402H7.44001C7.58978 3.18849 7.73141 3.23597 7.83522 3.3165C7.93902 3.39704 7.99693 3.50438 7.99681 3.61602ZM9.15681 3.61602C9.15675 3.55781 9.17248 3.50018 9.20307 3.44661C9.23366 3.39304 9.27847 3.34462 9.33481 3.30428C9.39115 3.26393 9.45786 3.23247 9.53092 3.21181C9.60399 3.19114 9.68192 3.18169 9.76001 3.18402H10.92C11.0738 3.18402 11.2214 3.22954 11.3301 3.31055C11.4389 3.39157 11.5 3.50145 11.5 3.61602C11.5 3.73059 11.4389 3.84048 11.3301 3.92149C11.2214 4.00251 11.0738 4.04802 10.92 4.04802H9.76001C9.61024 4.04356 9.46861 3.99608 9.36481 3.91554C9.261 3.835 9.20309 3.72766 9.20321 3.61602H9.15681ZM17.8336 13.984C17.8336 14.0986 17.7725 14.2085 17.6637 14.2895C17.555 14.3705 17.4074 14.416 17.2536 14.416H16.0936C15.9398 14.416 15.7923 14.3705 15.6835 14.2895C15.5747 14.2085 15.5136 14.0986 15.5136 13.984C15.5136 13.8694 15.5747 13.7596 15.6835 13.6786C15.7923 13.5975 15.9398 13.552 16.0936 13.552H17.2536C17.3307 13.5473 17.4084 13.5542 17.4819 13.5721C17.5554 13.5901 17.6234 13.6189 17.6817 13.6567C17.7401 13.6946 17.7877 13.7407 17.8218 13.7925C17.8558 13.8442 17.8756 13.9006 17.88 13.9581L17.8336 13.984ZM15.5136 11.392C15.5166 11.2781 15.5786 11.1695 15.6868 11.089C15.7949 11.0085 15.9407 10.9622 16.0936 10.96H17.2536C17.4065 10.9622 17.5523 11.0085 17.6604 11.089C17.7686 11.1695 17.8306 11.2781 17.8336 11.392C17.8336 11.5066 17.7725 11.6165 17.6637 11.6975C17.555 11.7785 17.4074 11.824 17.2536 11.824H16.0936C15.9439 11.8152 15.8046 11.7634 15.7051 11.6796C15.6055 11.5958 15.5535 11.4865 15.56 11.3747L15.5136 11.392ZM15.5136 8.80002C15.5136 8.68545 15.5747 8.57557 15.6835 8.49455C15.7923 8.41353 15.9398 8.36802 16.0936 8.36802H17.2536C17.4074 8.36802 17.555 8.41353 17.6637 8.49455C17.7725 8.57557 17.8336 8.68545 17.8336 8.80002C17.8336 8.91459 17.7725 9.02448 17.6637 9.10549C17.555 9.18651 17.4074 9.23202 17.2536 9.23202H16.0936C15.948 9.22332 15.8121 9.17399 15.7132 9.09389C15.6142 9.0138 15.5595 8.90885 15.56 8.80002H15.5136ZM15.5136 6.20802C15.5136 6.09345 15.5747 5.98357 15.6835 5.90255C15.7923 5.82153 15.9398 5.77602 16.0936 5.77602H17.2536C17.4074 5.77602 17.555 5.82153 17.6637 5.90255C17.7725 5.98357 17.8336 6.09345 17.8336 6.20802C17.8306 6.3219 17.7686 6.4305 17.6604 6.51104C17.5523 6.59158 17.4065 6.63781 17.2536 6.64002H16.0936C15.9528 6.62984 15.8215 6.58241 15.7236 6.50632C15.6257 6.43023 15.5677 6.33053 15.56 6.2253L15.5136 6.20802Z" fill="black"/>
</svg>
