<svg width="22" height="40" viewBox="0 0 22 40" fill="none" xmlns="http://www.w3.org/2000/svg">
<path d="M10.2616 13.8921L9.52331 13.0362L10.5432 12.8602L10.9999 11.7581L11.4567 12.8591L12.4766 13.0362L11.7383 13.8931L11.9143 15.1031L10.9999 14.5311L10.0874 15.1021L10.2616 13.8921ZM20.2399 9.36952V10.8781C20.2402 11.461 20.0765 12.0273 19.7751 12.4867C19.4737 12.9462 19.0519 13.2723 18.5767 13.4133L16.5439 14.0105C16.2871 15.1438 15.7444 16.1561 14.9891 16.9107C14.2337 17.6653 13.3021 18.1259 12.3199 18.2303V19.8457C12.3199 20.2625 12.459 20.6622 12.7066 20.9569C12.9541 21.2516 13.2899 21.4171 13.6399 21.4171C14.2234 21.4171 14.783 21.6931 15.1956 22.1842C15.6082 22.6754 15.8399 23.3416 15.8399 24.0362C15.8399 24.1751 15.7936 24.3083 15.7111 24.4066C15.6286 24.5048 15.5166 24.56 15.3999 24.56H6.59995C6.48325 24.56 6.37134 24.5048 6.28882 24.4066C6.20631 24.3083 6.15995 24.1751 6.15995 24.0362C6.15995 23.3416 6.39173 22.6754 6.80431 22.1842C7.21689 21.6931 7.77647 21.4171 8.35995 21.4171C8.71003 21.4171 9.04578 21.2516 9.29333 20.9569C9.54088 20.6622 9.67995 20.2625 9.67995 19.8457V18.2481C8.69854 18.1377 7.76865 17.6741 7.01406 16.9189C6.25948 16.1638 5.71599 15.1529 5.45595 14.021L3.43195 13.4175C2.95484 13.2771 2.53096 12.9505 2.22792 12.4899C1.92488 12.0293 1.76013 11.4611 1.75995 10.876V9.36952C1.75995 9.2306 1.80631 9.09737 1.88882 8.99913C1.97134 8.9009 2.08325 8.84571 2.19995 8.84571H5.27995V7.27428C5.27995 7.13536 5.32631 7.00213 5.40882 6.90389C5.49134 6.80566 5.60325 6.75047 5.71995 6.75047H16.2799C16.3966 6.75047 16.5086 6.80566 16.5911 6.90389C16.6736 7.00213 16.7199 7.13536 16.7199 7.27428V8.84571H19.7999C19.9166 8.84571 20.0286 8.9009 20.1111 8.99913C20.1936 9.09737 20.2399 9.2306 20.2399 9.36952ZM5.29579 12.8948C5.28875 12.768 5.27995 12.6412 5.27995 12.5124V9.89333H2.63995V10.876C2.63978 11.2266 2.73809 11.5671 2.91924 11.8435C3.10038 12.1199 3.35396 12.3163 3.63963 12.4013L5.29579 12.8948ZM10.7843 22.4648C10.6677 22.4648 10.5557 22.4096 10.4732 22.3113C10.3907 22.2131 10.3443 22.0799 10.3443 21.941C10.3443 21.802 10.3907 21.6688 10.4732 21.5706C10.5557 21.4723 10.6677 21.4171 10.7843 21.4171H11.8914C11.6 20.9666 11.4414 20.4143 11.4399 19.8457V18.2743H10.5599V19.8457C10.5599 20.1897 10.503 20.5302 10.3925 20.848C10.2819 21.1657 10.1199 21.4545 9.91558 21.6977C9.71129 21.9409 9.46877 22.1338 9.20185 22.2654C8.93494 22.397 8.64886 22.4648 8.35995 22.4648C8.08701 22.4648 7.8208 22.5656 7.59796 22.7532C7.37512 22.9408 7.20661 23.206 7.11563 23.5124H14.8843C14.7933 23.206 14.6248 22.9408 14.4019 22.7532C14.1791 22.5656 13.9129 22.4648 13.6399 22.4648H10.7843ZM15.8399 7.79809H6.15995V12.5124C6.16158 13.7621 6.57931 14.9601 7.32161 15.8437C8.0639 16.7274 9.07019 17.2247 10.1199 17.2267H11.8799C12.9297 17.2247 13.936 16.7274 14.6783 15.8437C15.4206 14.9601 15.8383 13.7621 15.8399 12.5124V9.89333H7.47995C7.36325 9.89333 7.25134 9.83814 7.16882 9.73991C7.08631 9.64168 7.03995 9.50844 7.03995 9.36952C7.03995 9.2306 7.08631 9.09737 7.16882 8.99913C7.25134 8.9009 7.36325 8.84571 7.47995 8.84571H15.8399V7.79809ZM19.3599 9.89333H16.7199V12.5124C16.7231 12.6419 16.7172 12.7716 16.7023 12.9L18.3567 12.3971C18.6431 12.3151 18.8979 12.1206 19.0799 11.845C19.2619 11.5694 19.3606 11.2287 19.3599 10.8781V9.89333ZM17.1599 18.2743C17.2766 18.2743 17.3886 18.2191 17.4711 18.1209C17.5536 18.0226 17.5999 17.8894 17.5999 17.7505V16.7029C17.5999 16.5639 17.5536 16.4307 17.4711 16.3325C17.3886 16.2342 17.2766 16.179 17.1599 16.179C17.0433 16.179 16.9313 16.2342 16.8488 16.3325C16.7663 16.4307 16.7199 16.5639 16.7199 16.7029V17.7505C16.7199 17.8894 16.7663 18.0226 16.8488 18.1209C16.9313 18.2191 17.0433 18.2743 17.1599 18.2743ZM17.1599 19.3219C17.0433 19.3219 16.9313 19.3771 16.8488 19.4753C16.7663 19.5736 16.7199 19.7068 16.7199 19.8457V20.8933C16.7199 21.0323 16.7663 21.1655 16.8488 21.2637C16.9313 21.362 17.0433 21.4171 17.1599 21.4171C17.2766 21.4171 17.3886 21.362 17.4711 21.2637C17.5536 21.1655 17.5999 21.0323 17.5999 20.8933V19.8457C17.5999 19.7068 17.5536 19.5736 17.4711 19.4753C17.3886 19.3771 17.2766 19.3219 17.1599 19.3219ZM16.2799 18.2743H15.8399C15.7233 18.2743 15.6113 18.3295 15.5288 18.4277C15.4463 18.5259 15.3999 18.6592 15.3999 18.7981C15.3999 18.937 15.4463 19.0702 15.5288 19.1685C15.6113 19.2667 15.7233 19.3219 15.8399 19.3219H16.2799C16.3966 19.3219 16.5086 19.2667 16.5911 19.1685C16.6736 19.0702 16.7199 18.937 16.7199 18.7981C16.7199 18.6592 16.6736 18.5259 16.5911 18.4277C16.5086 18.3295 16.3966 18.2743 16.2799 18.2743ZM18.4799 18.2743H18.0399C17.9233 18.2743 17.8113 18.3295 17.7288 18.4277C17.6463 18.5259 17.5999 18.6592 17.5999 18.7981C17.5999 18.937 17.6463 19.0702 17.7288 19.1685C17.8113 19.2667 17.9233 19.3219 18.0399 19.3219H18.4799C18.5966 19.3219 18.7086 19.2667 18.7911 19.1685C18.8736 19.0702 18.9199 18.937 18.9199 18.7981C18.9199 18.6592 18.8736 18.5259 18.7911 18.4277C18.7086 18.3295 18.5966 18.2743 18.4799 18.2743ZM3.95995 4.65524C4.07664 4.65524 4.18856 4.60005 4.27108 4.50182C4.35359 4.40358 4.39995 4.27035 4.39995 4.13143V3.08381C4.39995 2.94488 4.35359 2.81165 4.27108 2.71342C4.18856 2.61518 4.07664 2.56 3.95995 2.56C3.84325 2.56 3.73134 2.61518 3.64882 2.71342C3.56631 2.81165 3.51995 2.94488 3.51995 3.08381V4.13143C3.51995 4.27035 3.56631 4.40358 3.64882 4.50182C3.73134 4.60005 3.84325 4.65524 3.95995 4.65524ZM3.95995 5.70285C3.84325 5.70285 3.73134 5.75804 3.64882 5.85628C3.56631 5.95451 3.51995 6.08774 3.51995 6.22666V7.27428C3.51995 7.41321 3.56631 7.54644 3.64882 7.64467C3.73134 7.74291 3.84325 7.79809 3.95995 7.79809C4.07664 7.79809 4.18856 7.74291 4.27108 7.64467C4.35359 7.54644 4.39995 7.41321 4.39995 7.27428V6.22666C4.39995 6.08774 4.35359 5.95451 4.27108 5.85628C4.18856 5.75804 4.07664 5.70285 3.95995 5.70285ZM2.63995 5.70285H3.07995C3.19664 5.70285 3.30856 5.64767 3.39108 5.54943C3.47359 5.4512 3.51995 5.31797 3.51995 5.17905C3.51995 5.04012 3.47359 4.90689 3.39108 4.80866C3.30856 4.71042 3.19664 4.65524 3.07995 4.65524H2.63995C2.52325 4.65524 2.41134 4.71042 2.32882 4.80866C2.24631 4.90689 2.19995 5.04012 2.19995 5.17905C2.19995 5.31797 2.24631 5.4512 2.32882 5.54943C2.41134 5.64767 2.52325 5.70285 2.63995 5.70285ZM4.83995 5.70285H5.27995C5.39664 5.70285 5.50856 5.64767 5.59108 5.54943C5.67359 5.4512 5.71995 5.31797 5.71995 5.17905C5.71995 5.04012 5.67359 4.90689 5.59108 4.80866C5.50856 4.71042 5.39664 4.65524 5.27995 4.65524H4.83995C4.72325 4.65524 4.61134 4.71042 4.52882 4.80866C4.44631 4.90689 4.39995 5.04012 4.39995 5.17905C4.39995 5.31797 4.44631 5.4512 4.52882 5.54943C4.61134 5.64767 4.72325 5.70285 4.83995 5.70285Z" fill="#2459DA"/>
</svg>
