<svg width="27" height="27" viewBox="0 0 27 27" fill="none" xmlns="http://www.w3.org/2000/svg">
<path d="M24.8754 7.27636L16.4379 2.63573C16.3133 2.56719 16.1734 2.53125 16.0312 2.53125C15.889 2.53125 15.7491 2.56719 15.6245 2.63573L7.18704 7.27636C7.05475 7.34919 6.94444 7.4562 6.86761 7.58621C6.79077 7.71622 6.75024 7.86447 6.75024 8.01548C6.75024 8.1665 6.79077 8.31474 6.86761 8.44475C6.94444 8.57476 7.05475 8.68177 7.18704 8.75461L15.1875 13.1548V22.1989L12.6259 20.7899L11.8125 22.2673L15.6245 24.364C15.7491 24.4327 15.889 24.4687 16.0312 24.4687C16.1735 24.4687 16.3134 24.4327 16.4379 24.364L24.8754 19.7234C25.0078 19.6506 25.1181 19.5436 25.195 19.4135C25.2719 19.2835 25.3125 19.1353 25.3125 18.9842V8.01548C25.3125 7.86444 25.2719 7.71617 25.195 7.58616C25.1181 7.45615 25.0078 7.34916 24.8754 7.27636ZM16.0312 4.33842L22.7179 8.01548L16.0312 11.6925L9.34451 8.01548L16.0312 4.33842ZM23.625 18.4856L16.875 22.1981V13.1539L23.625 9.44142V18.4856Z" fill="#2459DA"/>
<path d="M8.4375 13.5H1.6875V11.8125H8.4375V13.5Z" fill="#2459DA"/>
<path d="M10.125 20.25H3.375V18.5625H10.125V20.25Z" fill="#2459DA"/>
<path d="M11.8125 16.875H5.0625V15.1875H11.8125V16.875Z" fill="#2459DA"/>
</svg>
