<svg width="25" height="25" viewBox="0 0 25 25" fill="none" xmlns="http://www.w3.org/2000/svg">
<path d="M23.375 12.9766L21.0312 7.50781C20.9714 7.3666 20.8714 7.24612 20.7436 7.16137C20.6158 7.07663 20.4659 7.03137 20.3125 7.03125H17.9688V5.46875C17.9688 5.26155 17.8864 5.06284 17.7399 4.91632C17.5934 4.76981 17.3947 4.6875 17.1875 4.6875H2.34375C2.13655 4.6875 1.93784 4.76981 1.79132 4.91632C1.64481 5.06284 1.5625 5.26155 1.5625 5.46875V18.75C1.5625 18.9572 1.64481 19.1559 1.79132 19.3024C1.93784 19.4489 2.13655 19.5312 2.34375 19.5312H4.01562C4.19553 20.1933 4.58828 20.7777 5.13328 21.1943C5.67827 21.611 6.34523 21.8367 7.03125 21.8367C7.71727 21.8367 8.38423 21.611 8.92922 21.1943C9.47422 20.7777 9.86697 20.1933 10.0469 19.5312H14.9531C15.133 20.1933 15.5258 20.7777 16.0708 21.1943C16.6158 21.611 17.2827 21.8367 17.9688 21.8367C18.6548 21.8367 19.3217 21.611 19.8667 21.1943C20.4117 20.7777 20.8045 20.1933 20.9844 19.5312H22.6562C22.8635 19.5312 23.0622 19.4489 23.2087 19.3024C23.3552 19.1559 23.4375 18.9572 23.4375 18.75V13.2812C23.4373 13.1765 23.416 13.0729 23.375 12.9766ZM17.9688 8.59375H19.7969L21.4688 12.5H17.9688V8.59375ZM7.03125 20.3125C6.72222 20.3125 6.42012 20.2209 6.16317 20.0492C5.90622 19.8775 5.70595 19.6335 5.58769 19.3479C5.46943 19.0624 5.43848 18.7483 5.49877 18.4452C5.55906 18.1421 5.70788 17.8637 5.9264 17.6451C6.14492 17.4266 6.42333 17.2778 6.72642 17.2175C7.02952 17.1572 7.34368 17.1882 7.62919 17.3064C7.9147 17.4247 8.15873 17.625 8.33042 17.8819C8.50211 18.1389 8.59375 18.441 8.59375 18.75C8.59375 19.1644 8.42913 19.5618 8.1361 19.8549C7.84308 20.1479 7.44565 20.3125 7.03125 20.3125ZM14.9531 17.9688H10.0469C9.86697 17.3067 9.47422 16.7223 8.92922 16.3057C8.38423 15.889 7.71727 15.6633 7.03125 15.6633C6.34523 15.6633 5.67827 15.889 5.13328 16.3057C4.58828 16.7223 4.19553 17.3067 4.01562 17.9688H3.125V6.25H16.4062V16.0625C16.0505 16.269 15.739 16.5436 15.4897 16.8708C15.2403 17.1979 15.058 17.571 14.9531 17.9688ZM17.9688 20.3125C17.6597 20.3125 17.3576 20.2209 17.1007 20.0492C16.8437 19.8775 16.6434 19.6335 16.5252 19.3479C16.4069 19.0624 16.376 18.7483 16.4363 18.4452C16.4966 18.1421 16.6454 17.8637 16.8639 17.6451C17.0824 17.4266 17.3608 17.2778 17.6639 17.2175C17.967 17.1572 18.2812 17.1882 18.5667 17.3064C18.8522 17.4247 19.0962 17.625 19.2679 17.8819C19.4396 18.1389 19.5312 18.441 19.5312 18.75C19.5312 19.1644 19.3666 19.5618 19.0736 19.8549C18.7806 20.1479 18.3832 20.3125 17.9688 20.3125ZM21.875 17.9688H20.9844C20.8116 17.2996 20.4219 16.7066 19.8763 16.2826C19.3306 15.8585 18.6598 15.6272 17.9688 15.625V14.0625H21.875V17.9688Z" fill="#2459DA"/>
</svg>
