<svg width="26" height="32" viewBox="0 0 26 32" fill="none" xmlns="http://www.w3.org/2000/svg">
<path d="M22.75 5.59998H3.25V6.39998H22.75V5.59998Z" fill="black"/>
<path d="M22.75 8H3.25V8.8H22.75V8Z" fill="black"/>
<path d="M13.8125 10.4H3.25V11.2H13.8125V10.4Z" fill="black"/>
<path d="M23.1156 19.2H25.1875V1.59998H0.8125V19.2H14.1781L12.0656 21.28L14.5844 21.64L14.95 24.12L18.2812 20.76C18.4031 20.76 18.525 20.8 18.6875 20.8C18.8094 20.8 18.9313 20.8 19.0531 20.8L22.425 24.12L22.75 21.68L25.2688 21.32L23.1156 19.2ZM1.625 18.4V2.39998H24.375V18.4H22.3031L22.1812 18.28C22.3031 17.96 22.3438 17.56 22.3438 17.2C22.3438 15.2 20.7188 13.6 18.6875 13.6C16.6562 13.6 15.0312 15.2 15.0312 17.2C15.0312 17.56 15.0719 17.88 15.1938 18.2L14.9906 18.4H1.625ZM15.5188 22.4L15.3156 20.92L13.8125 20.72L15.5188 19C15.925 19.72 16.575 20.28 17.3875 20.56L15.5188 22.4ZM18.6875 20C17.1031 20 15.8438 18.76 15.8438 17.2C15.8438 15.64 17.1031 14.4 18.6875 14.4C20.2719 14.4 21.5312 15.64 21.5312 17.2C21.5312 18.76 20.2719 20 18.6875 20ZM22.0594 20.92L21.8562 22.4L19.9875 20.56C20.7594 20.28 21.4094 19.72 21.8562 19.04L23.5625 20.72L22.0594 20.92Z" fill="black"/>
</svg>
