<svg width="43" height="43" viewBox="0 0 43 43" fill="none" xmlns="http://www.w3.org/2000/svg">
<path d="M17.5 0C14.8478 0 12.3043 1.05357 10.4289 2.92893C8.55357 4.8043 7.5 7.34784 7.5 10C7.5 12.6522 8.55357 15.1957 10.4289 17.0711C12.3043 18.9464 14.8478 20 17.5 20C20.1522 20 22.6957 18.9464 24.5711 17.0711C26.4464 15.1957 27.5 12.6522 27.5 10C27.5 7.34784 26.4464 4.8043 24.5711 2.92893C22.6957 1.05357 20.1522 0 17.5 0Z" fill="#3464DC"/>
<path d="M5.0225 22.5C4.36409 22.4974 3.71164 22.6248 3.10256 22.8748C2.49348 23.1249 1.93976 23.4927 1.47315 23.9573C1.00654 24.4218 0.636212 24.9739 0.383416 25.5818C0.13062 26.1898 0.00032378 26.8416 0 27.5C0 31.7275 2.0825 34.915 5.3375 36.9925C8.5425 39.035 12.8625 40 17.5 40C19.7 40 21.8275 39.7825 23.8 39.3375C23.65 38.255 23.84 37.13 24.37 36.145L24.4 36.09L24.6075 35.7475L26.075 33.595C26.6144 32.7888 27.3823 32.1619 28.2802 31.7949C29.1782 31.4279 30.1653 31.3374 31.115 31.535L31.185 31.55L31.57 31.655L32.905 32.1C33.31 31.6618 33.6647 31.1796 33.9625 30.6625C34.275 30.1225 34.5025 29.6025 34.6625 29.095L33.4625 27.9575C32.8003 27.3218 32.3189 26.5215 32.0676 25.6385C31.8163 24.7556 31.8042 23.8217 32.0325 22.9325C31.3929 22.6471 30.7004 22.4998 30 22.5H5.0225Z" fill="#3464DC"/>
<path d="M34.5874 23.1625L35.5849 20.81C36.0524 19.705 37.1724 19.105 38.2724 19.335L38.5074 19.395L39.7574 19.795C40.9974 20.1925 41.9449 21.2525 42.2524 22.585C42.9799 25.7525 42.1074 29.61 39.6299 34.155C37.1574 38.695 34.4499 41.4225 31.5024 42.3425C30.3574 42.7 29.1274 42.4425 28.2024 41.665L27.9599 41.44L27.0099 40.4875C26.6108 40.0766 26.353 39.5492 26.2739 38.9819C26.1948 38.4146 26.2985 37.8368 26.5699 37.3325L26.7099 37.1025L28.1399 35.0025C28.3999 34.606 28.7728 34.2967 29.2105 34.1144C29.6481 33.9321 30.1304 33.8853 30.5949 33.98L30.8449 34.0475L33.4874 34.93C34.5399 34.13 35.4199 33.13 36.1224 31.9175C36.7249 30.88 37.1224 29.83 37.3049 28.765L37.3799 28.23L35.1824 26.1425C34.8277 25.7968 34.5756 25.3598 34.4538 24.8798C34.332 24.3997 34.3454 23.8954 34.4924 23.4225L34.5849 23.1625H34.5874Z" fill="#3464DC"/>
</svg>
