<svg width="26" height="26" viewBox="0 0 26 26" fill="none" xmlns="http://www.w3.org/2000/svg">
<path d="M19.24 11.7C19.37 11.31 19.5 10.92 19.5 10.4C19.5 7.53995 17.16 5.19995 14.3 5.19995C12.35 5.19995 10.53 6.36995 9.75005 8.05995C9.36005 7.92995 8.84005 7.79995 8.45005 7.79995C6.63005 7.79995 5.20005 9.22995 5.20005 11.05C5.20005 11.31 5.20005 11.57 5.33005 11.7C2.99005 12.09 1.30005 13.91 1.30005 16.25C1.30005 18.72 3.38005 20.8 5.85005 20.8H10.4V16.9H6.50005L12.35 11.05L18.2 16.9H14.3V20.8H18.85C21.32 20.8 23.4 18.72 23.4 16.25C23.4 13.91 21.58 11.96 19.24 11.7Z" fill="#3464DC"/>
</svg>
