<svg width="23" height="23" viewBox="0 0 23 23" fill="none" xmlns="http://www.w3.org/2000/svg">
<path d="M11.5 1.84009C8.93797 1.84009 6.48092 2.85784 4.66931 4.66944C2.85771 6.48104 1.83997 8.9381 1.83997 11.5001C1.83997 14.0621 2.85771 16.5191 4.66931 18.3307C6.48092 20.1423 8.93797 21.1601 11.5 21.1601C14.062 21.1601 16.519 20.1423 18.3306 18.3307C20.1422 16.5191 21.16 14.0621 21.16 11.5001C21.16 8.9381 20.1422 6.48104 18.3306 4.66944C16.519 2.85784 14.062 1.84009 11.5 1.84009ZM17.0073 15.0202L15.019 17.0086L11.5 13.4884L7.97982 17.0074L5.99147 15.0191L9.51277 11.5001L5.99262 7.97994L7.98097 5.99274L11.5 9.51174L15.0201 5.99159L17.0085 7.97994L13.4872 11.5001L17.0073 15.0202Z" fill="#3464DC"/>
</svg>
