<svg width="25" height="25" viewBox="0 0 25 25" fill="none" xmlns="http://www.w3.org/2000/svg">
<path d="M11.2291 17.9583L7.50683 14.236C7.39306 14.1032 7.33361 13.9323 7.34036 13.7575C7.34711 13.5828 7.41957 13.417 7.54324 13.2933C7.66692 13.1696 7.83271 13.0972 8.00749 13.0904C8.18226 13.0837 8.35315 13.1431 8.48599 13.2569L11.2291 15.9722L17.2291 9.97216C17.3619 9.85839 17.5328 9.79894 17.7076 9.80569C17.8823 9.81244 18.0481 9.8849 18.1718 10.0086C18.2955 10.1323 18.3679 10.298 18.3747 10.4728C18.3814 10.6476 18.322 10.8185 18.2082 10.9513L11.2291 17.9583Z" fill="#3464DC"/>
<path d="M22.3958 4.1665H20.1388V5.55539H22.2222V20.8332H2.77774V5.55539H4.86107V4.1665H2.60413C2.44179 4.16922 2.28158 4.20388 2.13265 4.26852C1.98371 4.33316 1.84897 4.42651 1.73612 4.54323C1.62326 4.65996 1.53451 4.79777 1.47492 4.9488C1.41534 5.09983 1.38609 5.26111 1.38885 5.42345V20.9651C1.38609 21.1275 1.41534 21.2887 1.47492 21.4398C1.53451 21.5908 1.62326 21.7286 1.73612 21.8453C1.84897 21.9621 1.98371 22.0554 2.13265 22.12C2.28158 22.1847 2.44179 22.2193 2.60413 22.2221H22.3958C22.5581 22.2193 22.7183 22.1847 22.8673 22.12C23.0162 22.0554 23.151 21.9621 23.2638 21.8453C23.3767 21.7286 23.4654 21.5908 23.525 21.4398C23.5846 21.2887 23.6138 21.1275 23.6111 20.9651V5.42345C23.6138 5.26111 23.5846 5.09983 23.525 4.9488C23.4654 4.79777 23.3767 4.65996 23.2638 4.54323C23.151 4.42651 23.0162 4.33316 22.8673 4.26852C22.7183 4.20388 22.5581 4.16922 22.3958 4.1665Z" fill="#3464DC"/>
<path d="M6.94444 6.94423C7.12862 6.94423 7.30526 6.87106 7.43549 6.74083C7.56572 6.6106 7.63889 6.43396 7.63889 6.24978V2.08312C7.63889 1.89894 7.56572 1.7223 7.43549 1.59207C7.30526 1.46184 7.12862 1.38867 6.94444 1.38867C6.76027 1.38867 6.58363 1.46184 6.4534 1.59207C6.32316 1.7223 6.25 1.89894 6.25 2.08312V6.24978C6.25 6.43396 6.32316 6.6106 6.4534 6.74083C6.58363 6.87106 6.76027 6.94423 6.94444 6.94423Z" fill="#3464DC"/>
<path d="M18.0555 6.94423C18.2397 6.94423 18.4163 6.87106 18.5466 6.74083C18.6768 6.6106 18.75 6.43396 18.75 6.24978V2.08312C18.75 1.89894 18.6768 1.7223 18.5466 1.59207C18.4163 1.46184 18.2397 1.38867 18.0555 1.38867C17.8714 1.38867 17.6947 1.46184 17.5645 1.59207C17.4342 1.7223 17.3611 1.89894 17.3611 2.08312V6.24978C17.3611 6.43396 17.4342 6.6106 17.5645 6.74083C17.6947 6.87106 17.8714 6.94423 18.0555 6.94423Z" fill="#3464DC"/>
<path d="M9.02783 4.1665H15.9723V5.55539H9.02783V4.1665Z" fill="#3464DC"/>
</svg>
