<svg width="26" height="34" viewBox="0 0 26 34" fill="none" xmlns="http://www.w3.org/2000/svg">
<path d="M21.58 23.12H4.41999C4.13399 23.12 3.89999 22.8752 3.89999 22.576V20.128C3.89999 19.8288 4.13399 19.584 4.41999 19.584H21.58C21.866 19.584 22.1 19.8288 22.1 20.128V22.576C22.1 22.8752 21.866 23.12 21.58 23.12ZM4.93999 22.032H21.06V20.672H4.93999V22.032Z" fill="black"/>
<path d="M22.88 25.568H3.12001C2.83401 25.568 2.60001 25.3232 2.60001 25.024V22.576C2.60001 22.2768 2.83401 22.032 3.12001 22.032H22.88C23.166 22.032 23.4 22.2768 23.4 22.576V25.024C23.4 25.3232 23.166 25.568 22.88 25.568ZM3.64001 24.48H22.36V23.12H3.64001V24.48Z" fill="black"/>
<path d="M6.24 18.768C5.954 18.768 5.72 18.5232 5.72 18.224V8.97601C5.72 8.67681 5.954 8.43201 6.24 8.43201C6.526 8.43201 6.76 8.67681 6.76 8.97601V18.224C6.76 18.5232 6.526 18.768 6.24 18.768Z" fill="black"/>
<path d="M9.62001 18.768C9.33401 18.768 9.10001 18.5232 9.10001 18.224V8.97601C9.10001 8.67681 9.33401 8.43201 9.62001 8.43201C9.90601 8.43201 10.14 8.67681 10.14 8.97601V18.224C10.14 18.5232 9.90601 18.768 9.62001 18.768Z" fill="black"/>
<path d="M13 18.768C12.714 18.768 12.48 18.5232 12.48 18.224V8.97601C12.48 8.67681 12.714 8.43201 13 8.43201C13.286 8.43201 13.52 8.67681 13.52 8.97601V18.224C13.52 18.5232 13.286 18.768 13 18.768Z" fill="black"/>
<path d="M16.38 18.768C16.094 18.768 15.86 18.5232 15.86 18.224V8.97601C15.86 8.67681 16.094 8.43201 16.38 8.43201C16.666 8.43201 16.9 8.67681 16.9 8.97601V18.224C16.9 18.5232 16.666 18.768 16.38 18.768Z" fill="black"/>
<path d="M19.76 18.768C19.474 18.768 19.24 18.5232 19.24 18.224V8.97601C19.24 8.67681 19.474 8.43201 19.76 8.43201C20.046 8.43201 20.28 8.67681 20.28 8.97601V18.224C20.28 18.5232 20.046 18.768 19.76 18.768Z" fill="black"/>
<path d="M22.88 9.52002H3.11998C2.88598 9.52002 2.67798 9.35682 2.62598 9.11202C2.57398 8.86723 2.65198 8.62242 2.85998 8.51362L12.74 2.25763C12.896 2.14883 13.104 2.14883 13.286 2.25763L23.166 8.51362C23.374 8.64962 23.452 8.89442 23.4 9.11202C23.322 9.35682 23.114 9.52002 22.88 9.52002ZM4.99198 8.43202H21.034L13 3.34563L4.99198 8.43202Z" fill="black"/>
</svg>
