<svg width="12" height="17" viewBox="0 0 12 17" fill="none" xmlns="http://www.w3.org/2000/svg">
<path d="M5.99999 4.94961e-10C4.44258 0.00130079 2.94898 0.618843 1.84539 1.71775C0.7418 2.81665 0.117911 4.30762 0.109985 5.865C0.109985 8.2 1.41999 10.155 2.37999 11.58L2.55499 11.84C3.51012 13.2243 4.53477 14.5594 5.62499 15.84L6.00499 16.285L6.38499 15.84C7.47506 14.5592 8.4997 13.2242 9.45499 11.84L9.62999 11.575C10.585 10.15 11.895 8.2 11.895 5.865C11.8871 4.30675 11.2625 2.81503 10.1578 1.71599C9.05314 0.616939 7.55825 -2.0178e-05 5.99999 4.94961e-10ZM5.99999 8.5C5.35126 8.5 4.71711 8.30763 4.17772 7.94722C3.63832 7.58681 3.21792 7.07454 2.96966 6.4752C2.72141 5.87586 2.65645 5.21636 2.78301 4.5801C2.90957 3.94385 3.22196 3.35941 3.68068 2.90069C4.13939 2.44197 4.72383 2.12958 5.36009 2.00302C5.99635 1.87646 6.65585 1.94142 7.25519 2.18968C7.85453 2.43793 8.3668 2.85834 8.72721 3.39773C9.08762 3.93712 9.27999 4.57128 9.27999 5.22C9.27999 6.08991 8.93441 6.92419 8.3193 7.53931C7.70418 8.15443 6.8699 8.5 5.99999 8.5Z" fill="black"/>
</svg>
