<svg width="18" height="18" viewBox="0 0 18 18" fill="none" xmlns="http://www.w3.org/2000/svg">
<path d="M10 5.00024C12.103 5.00024 13 5.89724 13 8.00024H15C15 4.77524 13.225 3.00024 10 3.00024V5.00024ZM13.422 10.4432C13.2299 10.2686 12.9774 10.1754 12.7178 10.1835C12.4583 10.1915 12.212 10.3001 12.031 10.4862L9.63804 12.9472C9.06204 12.8372 7.90404 12.4762 6.71204 11.2872C5.52004 10.0942 5.15904 8.93324 5.05204 8.36124L7.51104 5.96724C7.69745 5.78637 7.80617 5.54006 7.8142 5.28045C7.82223 5.02083 7.72892 4.76828 7.55404 4.57624L3.85904 0.513239C3.68408 0.320596 3.44092 0.203743 3.18119 0.187499C2.92146 0.171254 2.66564 0.256897 2.46804 0.426239L0.298038 2.28724C0.125149 2.46075 0.0219574 2.69169 0.00803782 2.93624C-0.00696218 3.18624 -0.292962 9.10824 4.29904 13.7022C8.30504 17.7072 13.323 18.0002 14.705 18.0002C14.907 18.0002 15.031 17.9942 15.064 17.9922C15.3086 17.9786 15.5394 17.8749 15.712 17.7012L17.572 15.5302C17.7415 15.3328 17.8273 15.077 17.8113 14.8173C17.7952 14.5576 17.6785 14.3143 17.486 14.1392L13.422 10.4432Z" fill="black"/>
</svg>
