<svg width="15" height="19" viewBox="0 0 15 19" fill="none" xmlns="http://www.w3.org/2000/svg">
<path d="M7.5 0L0 3.45455V8.63636C0 13.4295 3.2 17.9118 7.5 19C11.8 17.9118 15 13.4295 15 8.63636V3.45455L7.5 0ZM13.3333 8.63636C13.3333 10.2341 12.9083 11.7886 12.1833 13.1359L10.975 11.8836C11.5045 11.0534 11.7406 10.059 11.6434 9.0689C11.5462 8.07882 11.1216 7.15405 10.4417 6.45136C9.65998 5.64246 8.60048 5.18813 7.49583 5.18813C6.39119 5.18813 5.33169 5.64246 4.55 6.45136C3.76948 7.26148 3.33109 8.3595 3.33109 9.50432C3.33109 10.6491 3.76948 11.7472 4.55 12.5573C5.22901 13.2602 6.12115 13.6991 7.07598 13.7997C8.03082 13.9004 8.98995 13.6568 9.79167 13.11L11.225 14.5955C10.2333 15.8218 8.95 16.7632 7.5 17.2209C4.15 16.1414 1.66667 12.54 1.66667 8.63636V4.57727L7.5 1.89136L13.3333 4.57727V8.63636ZM7.5 12.0909C6.11667 12.0909 5 10.9336 5 9.5C5 8.06636 6.11667 6.90909 7.5 6.90909C8.88333 6.90909 10 8.06636 10 9.5C10 10.9336 8.88333 12.0909 7.5 12.0909Z" fill="#7D8597"/>
<path d="M7.5 0L0 3.45455V8.63636C0 13.4295 3.2 17.9118 7.5 19C11.8 17.9118 15 13.4295 15 8.63636V3.45455L7.5 0ZM13.3333 8.63636C13.3333 10.2341 12.9083 11.7886 12.1833 13.1359L10.975 11.8836C11.5045 11.0534 11.7406 10.059 11.6434 9.0689C11.5462 8.07882 11.1216 7.15405 10.4417 6.45136C9.65998 5.64246 8.60048 5.18813 7.49583 5.18813C6.39119 5.18813 5.33169 5.64246 4.55 6.45136C3.76948 7.26148 3.33109 8.3595 3.33109 9.50432C3.33109 10.6491 3.76948 11.7472 4.55 12.5573C5.22901 13.2602 6.12115 13.6991 7.07598 13.7997C8.03082 13.9004 8.98995 13.6568 9.79167 13.11L11.225 14.5955C10.2333 15.8218 8.95 16.7632 7.5 17.2209C4.15 16.1414 1.66667 12.54 1.66667 8.63636V4.57727L7.5 1.89136L13.3333 4.57727V8.63636ZM7.5 12.0909C6.11667 12.0909 5 10.9336 5 9.5C5 8.06636 6.11667 6.90909 7.5 6.90909C8.88333 6.90909 10 8.06636 10 9.5C10 10.9336 8.88333 12.0909 7.5 12.0909Z" stroke="white"/>
</svg>
