<svg width="40" height="9" viewBox="0 0 40 9" fill="none" xmlns="http://www.w3.org/2000/svg">
<path d="M1.27734 5.3584V8H0.0419922V0.890625H2.76172C3.55599 0.890625 4.18587 1.09733 4.65137 1.51074C5.12012 1.92415 5.35449 2.47103 5.35449 3.15137C5.35449 3.84798 5.125 4.38997 4.66602 4.77734C4.21029 5.16471 3.57064 5.3584 2.74707 5.3584H1.27734ZM1.27734 4.36719H2.76172C3.20117 4.36719 3.53646 4.26465 3.76758 4.05957C3.9987 3.85124 4.11426 3.55176 4.11426 3.16113C4.11426 2.77702 3.99707 2.47103 3.7627 2.24316C3.52832 2.01204 3.20605 1.89323 2.7959 1.88672H1.27734V4.36719ZM9.08984 3.80078C8.93359 3.77474 8.77246 3.76172 8.60645 3.76172C8.06283 3.76172 7.69661 3.97005 7.50781 4.38672V8H6.32129V2.7168H7.4541L7.4834 3.30762C7.76986 2.84863 8.16699 2.61914 8.6748 2.61914C8.84408 2.61914 8.98405 2.64193 9.09473 2.6875L9.08984 3.80078ZM9.44141 5.30957C9.44141 4.79199 9.54395 4.3265 9.74902 3.91309C9.9541 3.49642 10.2422 3.17741 10.6133 2.95605C10.9844 2.73145 11.4108 2.61914 11.8926 2.61914C12.6055 2.61914 13.1833 2.84863 13.626 3.30762C14.0719 3.7666 14.3128 4.37533 14.3486 5.13379L14.3535 5.41211C14.3535 5.93294 14.2526 6.39844 14.0508 6.80859C13.8522 7.21875 13.5658 7.53613 13.1914 7.76074C12.8203 7.98535 12.3906 8.09766 11.9023 8.09766C11.1569 8.09766 10.5596 7.85026 10.1104 7.35547C9.66439 6.85742 9.44141 6.19499 9.44141 5.36816V5.30957ZM10.6279 5.41211C10.6279 5.95573 10.7402 6.38216 10.9648 6.69141C11.1895 6.9974 11.502 7.15039 11.9023 7.15039C12.3027 7.15039 12.6136 6.99414 12.835 6.68164C13.0596 6.36914 13.1719 5.91178 13.1719 5.30957C13.1719 4.77572 13.0563 4.35254 12.8252 4.04004C12.5973 3.72754 12.2865 3.57129 11.8926 3.57129C11.5052 3.57129 11.1976 3.72591 10.9697 4.03516C10.7419 4.34115 10.6279 4.80013 10.6279 5.41211ZM15.1348 5.31934C15.1348 4.50553 15.3236 3.85286 15.7012 3.36133C16.0788 2.86654 16.585 2.61914 17.2197 2.61914C17.7796 2.61914 18.2321 2.81445 18.5771 3.20508V0.5H19.7637V8H18.6895L18.6309 7.45312C18.276 7.88281 17.8024 8.09766 17.21 8.09766C16.5915 8.09766 16.0902 7.84863 15.7061 7.35059C15.3252 6.85254 15.1348 6.17546 15.1348 5.31934ZM16.3213 5.42188C16.3213 5.95898 16.4238 6.37891 16.6289 6.68164C16.8372 6.98112 17.1318 7.13086 17.5127 7.13086C17.9977 7.13086 18.3525 6.91439 18.5771 6.48145V4.22559C18.359 3.80241 18.0075 3.59082 17.5225 3.59082C17.1383 3.59082 16.8421 3.74382 16.6338 4.0498C16.4255 4.35254 16.3213 4.8099 16.3213 5.42188ZM24.2021 7.48242C23.8538 7.89258 23.359 8.09766 22.7178 8.09766C22.1449 8.09766 21.7103 7.93001 21.4141 7.59473C21.1211 7.25944 20.9746 6.77441 20.9746 6.13965V2.7168H22.1611V6.125C22.1611 6.79557 22.4395 7.13086 22.9961 7.13086C23.5723 7.13086 23.9613 6.92415 24.1631 6.51074V2.7168H25.3496V8H24.2314L24.2021 7.48242ZM28.7285 7.15039C29.0247 7.15039 29.2705 7.06413 29.4658 6.8916C29.6611 6.71908 29.7653 6.50586 29.7783 6.25195H30.8965C30.8835 6.58073 30.7809 6.88835 30.5889 7.1748C30.3968 7.45801 30.1364 7.68262 29.8076 7.84863C29.4788 8.01465 29.124 8.09766 28.7432 8.09766C28.0042 8.09766 27.4183 7.8584 26.9854 7.37988C26.5524 6.90137 26.3359 6.24056 26.3359 5.39746V5.27539C26.3359 4.47135 26.5508 3.82845 26.9805 3.34668C27.4102 2.86165 27.9961 2.61914 28.7383 2.61914C29.3665 2.61914 29.8776 2.80306 30.2715 3.1709C30.6686 3.53548 30.877 4.01562 30.8965 4.61133H29.7783C29.7653 4.30859 29.6611 4.05957 29.4658 3.86426C29.2738 3.66895 29.028 3.57129 28.7285 3.57129C28.3444 3.57129 28.0482 3.71126 27.8398 3.99121C27.6315 4.2679 27.5257 4.68945 27.5225 5.25586V5.44629C27.5225 6.01921 27.625 6.44727 27.8301 6.73047C28.0384 7.01042 28.3379 7.15039 28.7285 7.15039ZM33.2793 1.43262V2.7168H34.2119V3.5957H33.2793V6.54492C33.2793 6.74674 33.3184 6.89323 33.3965 6.98438C33.4779 7.07227 33.6211 7.11621 33.8262 7.11621C33.9629 7.11621 34.1012 7.09993 34.2412 7.06738V7.98535C33.971 8.06022 33.7106 8.09766 33.46 8.09766C32.5485 8.09766 32.0928 7.59473 32.0928 6.58887V3.5957H31.2236V2.7168H32.0928V1.43262H33.2793ZM38.084 6.56445C38.084 6.35286 37.9961 6.19173 37.8203 6.08105C37.6478 5.97038 37.3597 5.87272 36.9561 5.78809C36.5524 5.70345 36.2155 5.59603 35.9453 5.46582C35.3529 5.17936 35.0566 4.76432 35.0566 4.2207C35.0566 3.76497 35.2487 3.38411 35.6328 3.07812C36.0169 2.77214 36.5052 2.61914 37.0977 2.61914C37.7292 2.61914 38.2386 2.77539 38.626 3.08789C39.0166 3.40039 39.2119 3.80566 39.2119 4.30371H38.0254C38.0254 4.07585 37.9408 3.88704 37.7715 3.7373C37.6022 3.58431 37.3776 3.50781 37.0977 3.50781C36.8372 3.50781 36.624 3.56803 36.458 3.68848C36.2952 3.80892 36.2139 3.97005 36.2139 4.17188C36.2139 4.35417 36.2904 4.49577 36.4434 4.59668C36.5964 4.69759 36.9056 4.80013 37.3711 4.9043C37.8366 5.00521 38.2012 5.12728 38.4648 5.27051C38.7318 5.41048 38.9287 5.57975 39.0557 5.77832C39.1859 5.97689 39.251 6.21777 39.251 6.50098C39.251 6.97624 39.054 7.36198 38.6602 7.6582C38.2663 7.95117 37.7503 8.09766 37.1123 8.09766C36.6794 8.09766 36.2936 8.01953 35.9551 7.86328C35.6165 7.70703 35.3529 7.49219 35.1641 7.21875C34.9753 6.94531 34.8809 6.65072 34.8809 6.33496H36.0332C36.0495 6.61491 36.1553 6.83138 36.3506 6.98438C36.5459 7.13411 36.8047 7.20898 37.127 7.20898C37.4395 7.20898 37.6771 7.15039 37.8398 7.0332C38.0026 6.91276 38.084 6.75651 38.084 6.56445Z" fill="#525866"/>
</svg>
