<svg width="18" height="18" viewBox="0 0 18 18" fill="none" xmlns="http://www.w3.org/2000/svg">
<path d="M17.3892 6.75L16.1599 5.53711L11.1726 10.5469C11.114 10.7109 11.0321 10.8457 10.9267 10.9512C10.6926 11.1855 10.4057 11.2793 10.0662 11.2324C9.76183 11.2441 9.50427 11.1445 9.29354 10.9336C9.18817 10.8398 9.11208 10.7168 9.06525 10.5645L8.41549 9.91406C8.39208 9.94922 8.07305 10.3037 7.45842 10.9775C6.84378 11.6514 6.5072 12.0176 6.44866 12.0762C6.21452 12.3105 5.92183 12.4043 5.57061 12.3574C5.26622 12.3691 5.00866 12.2695 4.79793 12.0586C4.69256 11.9648 4.61647 11.8418 4.56964 11.6895L4.48183 11.6016L2.33939 13.7461C2.32769 13.7578 2.31305 13.7695 2.29549 13.7812C2.27793 13.793 2.2633 13.8047 2.25159 13.8164V15.75H16.8623C17.1667 15.75 17.4301 15.8613 17.6526 16.084C17.875 16.3066 17.9862 16.5732 17.9862 16.8838C17.9862 17.1943 17.875 17.458 17.6526 17.6748C17.4301 17.8916 17.1667 18 16.8623 18H1.12769C0.811589 18 0.545248 17.8916 0.328662 17.6748C0.112077 17.458 0.00378418 17.1914 0.00378418 16.875V1.125C0.00378418 0.820312 0.112077 0.556641 0.328662 0.333984C0.545248 0.111328 0.808662 0 1.11891 0C1.42915 0 1.69549 0.111328 1.91793 0.333984C2.14037 0.556641 2.25159 0.820312 2.25159 1.125V10.8809L3.44574 9.68555C3.49256 9.54492 3.56866 9.42188 3.67403 9.31641C3.88476 9.10547 4.14232 9.00586 4.44671 9.01758C4.78622 8.98242 5.07305 9.07617 5.3072 9.29883C5.41256 9.4043 5.49452 9.54492 5.55305 9.7207L5.60574 9.77344L7.37939 7.99805C7.42622 7.85742 7.50232 7.73438 7.60769 7.62891C7.81842 7.41797 8.07598 7.31836 8.38037 7.33008C8.73159 7.29492 9.01842 7.38867 9.24086 7.61133C9.34622 7.7168 9.42817 7.85742 9.48671 8.0332L10.1013 8.64844L14.6848 4.06055L13.4906 2.86523C13.4789 2.44336 13.6077 2.23828 13.877 2.25H17.4243C17.5882 2.26172 17.7199 2.31738 17.8194 2.41699C17.9189 2.5166 17.9745 2.64844 17.9862 2.8125V6.36328C17.9979 6.64453 17.7989 6.77344 17.3892 6.75Z" fill="#7D8597"/>
</svg>
