<svg width="7" height="7" viewBox="0 0 7 7" fill="none" xmlns="http://www.w3.org/2000/svg">
<path d="M6.4862 0.125623C6.37142 0.0617492 6.24516 0.0211295 6.11466 0.00608675C5.98417 -0.008956 5.85198 0.00187321 5.72567 0.0379552C5.59936 0.0740372 5.4814 0.134664 5.37854 0.216369C5.27568 0.298074 5.18993 0.399254 5.1262 0.514123L3.2697 3.85512L2.2072 2.79262C2.11496 2.69711 2.00461 2.62093 1.88261 2.56852C1.7606 2.51611 1.62938 2.48853 1.4966 2.48737C1.36383 2.48622 1.23215 2.51152 1.10925 2.5618C0.986353 2.61208 0.874701 2.68634 0.780808 2.78023C0.686916 2.87412 0.612662 2.98577 0.562382 3.10867C0.512101 3.23157 0.486799 3.36325 0.487953 3.49602C0.489107 3.6288 0.516693 3.76002 0.569102 3.88203C0.621511 4.00403 0.697693 4.11438 0.793203 4.20662L2.7932 6.20662C2.9822 6.39612 3.2372 6.50012 3.5002 6.50012L3.6387 6.49012C3.79198 6.46868 3.93818 6.41196 4.06581 6.32441C4.19344 6.23687 4.29901 6.1209 4.3742 5.98562L6.8742 1.48562C6.93803 1.37085 6.97863 1.24463 6.99367 1.11416C7.00871 0.9837 6.99791 0.85155 6.96188 0.725261C6.92585 0.598972 6.8653 0.481017 6.78368 0.378131C6.70207 0.275244 6.60098 0.189442 6.4862 0.125623Z" fill="white"/>
</svg>
