<?xml version="1.0" standalone="no"?>
<!DOCTYPE svg PUBLIC "-//W3C//DTD SVG 20010904//EN"
 "http://www.w3.org/TR/2001/REC-SVG-20010904/DTD/svg10.dtd">
<svg version="1.0" xmlns="http://www.w3.org/2000/svg"
 width="32.000000pt" height="32.000000pt" viewBox="0 0 32.000000 32.000000"
 preserveAspectRatio="xMidYMid meet">

<g transform="translate(0.000000,32.000000) scale(0.100000,-0.100000)"
fill="#000000" stroke="none">
<path d="M7 293 c-11 -10 -8 -121 3 -128 6 -3 10 -17 10 -31 0 -32 14 -31 35
4 17 26 17 26 0 10 -17 -16 -19 -16 -32 9 -7 14 -13 50 -13 79 l0 54 89 0 c77
0 90 -2 94 -17 4 -14 5 -12 6 5 1 21 -2 22 -92 22 -52 0 -97 -3 -100 -7z"/>
<path d="M97 234 c-4 -4 -7 -40 -7 -80 0 -84 1 -84 95 -84 56 0 64 -3 79 -25
22 -33 36 -32 36 3 0 15 5 33 10 38 6 6 10 41 8 80 l-3 69 -106 3 c-58 1 -108
-1 -112 -4z m213 -73 c0 -39 -4 -73 -10 -76 -5 -3 -10 -16 -10 -27 l0 -21 -23
21 c-17 16 -37 22 -92 24 l-70 3 -3 73 -3 72 106 0 105 0 0 -69z"/>
<path d="M168 193 c23 -2 59 -2 80 0 20 2 1 4 -43 4 -44 0 -61 -2 -37 -4z"/>
<path d="M168 123 c23 -2 59 -2 80 0 20 2 1 4 -43 4 -44 0 -61 -2 -37 -4z"/>
</g>
</svg>
