<?xml version="1.0" standalone="no"?>
<!DOCTYPE svg PUBLIC "-//W3C//DTD SVG 20010904//EN"
 "http://www.w3.org/TR/2001/REC-SVG-20010904/DTD/svg10.dtd">
<svg version="1.0" xmlns="http://www.w3.org/2000/svg"
 width="32.000000pt" height="32.000000pt" viewBox="0 0 32.000000 32.000000"
 preserveAspectRatio="xMidYMid meet">

<g transform="translate(0.000000,32.000000) scale(0.100000,-0.100000)"
fill="#000000" stroke="none">
<path d="M92 304 c-18 -10 -45 -33 -60 -52 -22 -29 -27 -46 -27 -92 0 -47 5
-63 29 -94 88 -116 267 -67 283 78 14 119 -120 214 -225 160z m115 -5 c93 -35
130 -149 72 -223 -19 -25 -22 -25 -50 -11 -32 17 -37 40 -14 72 16 23 12 96
-8 121 -12 16 -82 16 -94 0 -20 -25 -24 -97 -8 -128 21 -40 19 -47 -14 -65
-28 -14 -31 -14 -50 11 -85 108 37 272 166 223z"/>
</g>
</svg>
