<svg width="22" height="22" viewBox="0 0 22 22" fill="none" xmlns="http://www.w3.org/2000/svg">
<path d="M10.3889 5.79332V4.83388C10.3889 3.29388 8.08501 2.48721 5.80556 2.48721C3.52612 2.48721 1.22223 3.29999 1.22223 4.83388V11.1467C1.22223 12.4667 2.91501 13.2428 4.82779 13.4444L4.8889 13.4017V9.30721C4.8889 7.38221 7.15001 5.95221 10.3889 5.79332Z" fill="#7D8597"/>
<path d="M11 6.63055C7.9872 6.63055 5.71387 7.77944 5.71387 9.30722V16.83C5.71387 18.3578 7.9872 19.5067 11 19.5067C14.0128 19.5067 16.2861 18.3578 16.2861 16.83V15.51C14.7585 16.6316 12.8931 17.1966 11 17.1111C9.75072 17.1326 8.50806 16.9255 7.33331 16.5V15.4428C8.49084 15.939 9.74083 16.1827 11 16.1578C13.5728 16.1578 15.675 15.4061 16.2739 14.1839V12.5094C15.1555 13.4444 13.2733 14.0556 11 14.0556C9.75072 14.0771 8.50806 13.87 7.33331 13.4444V12.3628C8.49084 12.859 9.74083 13.1027 11 13.0778C13.5728 13.0778 15.675 12.3994 16.2739 11.1772V9.30722C16.2861 7.77944 14.0128 6.63055 11 6.63055Z" fill="#7D8597"/>
<path d="M13.75 3.66665C13.7517 3.37942 13.7803 3.09298 13.8355 2.8111C12.5583 3.17165 11.6111 3.84998 11.6111 4.83387V5.79332C12.6566 5.82502 13.6894 6.03158 14.6666 6.40443C14.0725 5.61525 13.7509 4.65445 13.75 3.66665Z" fill="#7D8597"/>
<path d="M18.3333 8.24389C17.7798 8.24308 17.2311 8.14162 16.7139 7.94445C16.989 8.34599 17.1379 8.82051 17.1416 9.30723V13.4017L17.1722 13.4383C19.085 13.2428 20.7778 12.4606 20.7778 11.1467V7.535C20.0468 7.99857 19.1989 8.24445 18.3333 8.24389Z" fill="#7D8597"/>
<path d="M18.3333 6.71612C20.0209 6.71612 21.3889 5.3481 21.3889 3.66057C21.3889 1.97303 20.0209 0.605011 18.3333 0.605011C16.6458 0.605011 15.2778 1.97303 15.2778 3.66057C15.2778 5.3481 16.6458 6.71612 18.3333 6.71612Z" fill="#7D8597"/>
</svg>
