<svg width="30" height="30" viewBox="0 0 30 30" fill="none" xmlns="http://www.w3.org/2000/svg">
<path d="M15 30C6.71575 30 0 23.2842 0 15C0 6.71575 6.71575 0 15 0C23.2842 0 30 6.71575 30 15C30 23.2843 23.2842 30 15 30ZM15 3.26087C8.51578 3.26087 3.26087 8.5174 3.26087 15C3.26087 21.4826 8.51578 26.7391 15 26.7391C21.4842 26.7391 26.7391 21.4826 26.7391 15C26.7391 8.5174 21.4842 3.26087 15 3.26087ZM17.9348 21.2772H12.0652V14.6087H8.39675L15 8.39675L21.6033 14.6087H17.9348V21.2772Z" fill="#A0B9F9"/>
</svg>
