<svg width="25" height="33" viewBox="0 0 25 33" fill="none" xmlns="http://www.w3.org/2000/svg">
<path d="M4.66797 30.1689C4.66797 29.8564 4.55729 29.6156 4.33594 29.4463C4.11784 29.277 3.72233 29.1061 3.14941 28.9336C2.5765 28.7611 2.12077 28.569 1.78223 28.3574C1.13444 27.9505 0.810547 27.4199 0.810547 26.7656C0.810547 26.1927 1.04329 25.7207 1.50879 25.3496C1.97754 24.9785 2.58464 24.793 3.33008 24.793C3.82487 24.793 4.26595 24.8841 4.65332 25.0664C5.04069 25.2487 5.34505 25.5091 5.56641 25.8477C5.78776 26.1829 5.89844 26.5557 5.89844 26.9658H4.66797C4.66797 26.5947 4.55078 26.305 4.31641 26.0967C4.08529 25.8851 3.75326 25.7793 3.32031 25.7793C2.91667 25.7793 2.60254 25.8656 2.37793 26.0381C2.15658 26.2106 2.0459 26.4515 2.0459 26.7607C2.0459 27.0212 2.16634 27.2393 2.40723 27.415C2.64811 27.5876 3.04525 27.7568 3.59863 27.9229C4.15202 28.0856 4.59635 28.2728 4.93164 28.4844C5.26693 28.6927 5.5127 28.9336 5.66895 29.207C5.8252 29.4772 5.90332 29.7946 5.90332 30.1592C5.90332 30.7516 5.67546 31.2236 5.21973 31.5752C4.76725 31.9235 4.15202 32.0977 3.37402 32.0977C2.8597 32.0977 2.38607 32.0033 1.95312 31.8145C1.52344 31.6224 1.18815 31.3587 0.947266 31.0234C0.709635 30.6882 0.59082 30.2975 0.59082 29.8516H1.82617C1.82617 30.2552 1.95964 30.5677 2.22656 30.7891C2.49349 31.0104 2.87598 31.1211 3.37402 31.1211C3.80371 31.1211 4.12598 31.0348 4.34082 30.8623C4.55892 30.6865 4.66797 30.4554 4.66797 30.1689ZM10.0293 32C9.97721 31.8991 9.93164 31.7347 9.89258 31.5068C9.51497 31.9007 9.05273 32.0977 8.50586 32.0977C7.97526 32.0977 7.54232 31.9463 7.20703 31.6436C6.87174 31.3408 6.7041 30.9665 6.7041 30.5205C6.7041 29.9574 6.91243 29.526 7.3291 29.2266C7.74902 28.9238 8.34798 28.7725 9.12598 28.7725H9.85352V28.4258C9.85352 28.1523 9.77702 27.9342 9.62402 27.7715C9.47103 27.6055 9.23828 27.5225 8.92578 27.5225C8.6556 27.5225 8.43424 27.5908 8.26172 27.7275C8.08919 27.861 8.00293 28.0319 8.00293 28.2402H6.81641C6.81641 27.9505 6.91243 27.6803 7.10449 27.4297C7.29655 27.1758 7.55697 26.9772 7.88574 26.834C8.21777 26.6908 8.58724 26.6191 8.99414 26.6191C9.61263 26.6191 10.1058 26.7754 10.4736 27.0879C10.8415 27.3971 11.0303 27.8333 11.04 28.3965V30.7793C11.04 31.2546 11.1068 31.6338 11.2402 31.917V32H10.0293ZM8.72559 31.1455C8.95996 31.1455 9.17969 31.0885 9.38477 30.9746C9.5931 30.8607 9.74935 30.7077 9.85352 30.5156V29.5195H9.21387C8.77441 29.5195 8.44401 29.596 8.22266 29.749C8.0013 29.902 7.89062 30.1185 7.89062 30.3984C7.89062 30.6263 7.96549 30.8086 8.11523 30.9453C8.26823 31.0788 8.47168 31.1455 8.72559 31.1455ZM13.5449 32H12.3584V24.5H13.5449V32ZM17.168 32.0977C16.416 32.0977 15.8057 31.8617 15.3369 31.3896C14.8714 30.9144 14.6387 30.2829 14.6387 29.4951V29.3486C14.6387 28.8213 14.7396 28.3509 14.9414 27.9375C15.1465 27.5208 15.4329 27.1969 15.8008 26.9658C16.1686 26.7347 16.5788 26.6191 17.0312 26.6191C17.7507 26.6191 18.3057 26.8486 18.6963 27.3076C19.0902 27.7666 19.2871 28.416 19.2871 29.2559V29.7344H15.835C15.8708 30.1706 16.0156 30.5156 16.2695 30.7695C16.5267 31.0234 16.849 31.1504 17.2363 31.1504C17.7799 31.1504 18.2227 30.9307 18.5645 30.4912L19.2041 31.1016C18.9925 31.4173 18.7093 31.6631 18.3545 31.8389C18.0029 32.0114 17.6074 32.0977 17.168 32.0977ZM17.0264 27.5713C16.7008 27.5713 16.4372 27.6852 16.2354 27.9131C16.0368 28.141 15.9098 28.4583 15.8545 28.8652H18.1152V28.7773C18.0892 28.3802 17.9834 28.0807 17.7979 27.8789C17.6123 27.6738 17.3551 27.5713 17.0264 27.5713ZM23.1738 30.5645C23.1738 30.3529 23.0859 30.1917 22.9102 30.0811C22.7376 29.9704 22.4495 29.8727 22.0459 29.7881C21.6423 29.7035 21.3053 29.596 21.0352 29.4658C20.4427 29.1794 20.1465 28.7643 20.1465 28.2207C20.1465 27.765 20.3385 27.3841 20.7227 27.0781C21.1068 26.7721 21.5951 26.6191 22.1875 26.6191C22.819 26.6191 23.3285 26.7754 23.7158 27.0879C24.1064 27.4004 24.3018 27.8057 24.3018 28.3037H23.1152C23.1152 28.0758 23.0306 27.887 22.8613 27.7373C22.6921 27.5843 22.4674 27.5078 22.1875 27.5078C21.9271 27.5078 21.7139 27.568 21.5479 27.6885C21.3851 27.8089 21.3037 27.9701 21.3037 28.1719C21.3037 28.3542 21.3802 28.4958 21.5332 28.5967C21.6862 28.6976 21.9954 28.8001 22.4609 28.9043C22.9264 29.0052 23.291 29.1273 23.5547 29.2705C23.8216 29.4105 24.0186 29.5798 24.1455 29.7783C24.2757 29.9769 24.3408 30.2178 24.3408 30.501C24.3408 30.9762 24.1439 31.362 23.75 31.6582C23.3561 31.9512 22.8402 32.0977 22.2021 32.0977C21.7692 32.0977 21.3835 32.0195 21.0449 31.8633C20.7064 31.707 20.4427 31.4922 20.2539 31.2188C20.0651 30.9453 19.9707 30.6507 19.9707 30.335H21.123C21.1393 30.6149 21.2451 30.8314 21.4404 30.9844C21.6357 31.1341 21.8945 31.209 22.2168 31.209C22.5293 31.209 22.7669 31.1504 22.9297 31.0332C23.0924 30.9128 23.1738 30.7565 23.1738 30.5645Z" fill="#7D8597"/>
<path d="M20.3892 6.75L19.1599 5.53711L14.1726 10.5469C14.114 10.7109 14.0321 10.8457 13.9267 10.9512C13.6926 11.1855 13.4057 11.2793 13.0662 11.2324C12.7618 11.2441 12.5043 11.1445 12.2935 10.9336C12.1882 10.8398 12.1121 10.7168 12.0652 10.5645L11.4155 9.91406C11.3921 9.94922 11.0731 10.3037 10.4584 10.9775C9.84378 11.6514 9.5072 12.0176 9.44866 12.0762C9.21452 12.3105 8.92183 12.4043 8.57061 12.3574C8.26622 12.3691 8.00866 12.2695 7.79793 12.0586C7.69256 11.9648 7.61647 11.8418 7.56964 11.6895L7.48183 11.6016L5.33939 13.7461C5.32769 13.7578 5.31305 13.7695 5.29549 13.7812C5.27793 13.793 5.2633 13.8047 5.25159 13.8164V15.75H19.8623C20.1667 15.75 20.4301 15.8613 20.6526 16.084C20.875 16.3066 20.9862 16.5732 20.9862 16.8838C20.9862 17.1943 20.875 17.458 20.6526 17.6748C20.4301 17.8916 20.1667 18 19.8623 18H4.12769C3.81159 18 3.54525 17.8916 3.32866 17.6748C3.11208 17.458 3.00378 17.1914 3.00378 16.875V1.125C3.00378 0.820312 3.11208 0.556641 3.32866 0.333984C3.54525 0.111328 3.80866 0 4.11891 0C4.42915 0 4.69549 0.111328 4.91793 0.333984C5.14037 0.556641 5.25159 0.820312 5.25159 1.125V10.8809L6.44574 9.68555C6.49256 9.54492 6.56866 9.42188 6.67403 9.31641C6.88476 9.10547 7.14232 9.00586 7.44671 9.01758C7.78622 8.98242 8.07305 9.07617 8.3072 9.29883C8.41256 9.4043 8.49452 9.54492 8.55305 9.7207L8.60574 9.77344L10.3794 7.99805C10.4262 7.85742 10.5023 7.73438 10.6077 7.62891C10.8184 7.41797 11.076 7.31836 11.3804 7.33008C11.7316 7.29492 12.0184 7.38867 12.2409 7.61133C12.3462 7.7168 12.4282 7.85742 12.4867 8.0332L13.1013 8.64844L17.6848 4.06055L16.4906 2.86523C16.4789 2.44336 16.6077 2.23828 16.877 2.25H20.4243C20.5882 2.26172 20.7199 2.31738 20.8194 2.41699C20.9189 2.5166 20.9745 2.64844 20.9862 2.8125V6.36328C20.9979 6.64453 20.7989 6.77344 20.3892 6.75Z" fill="#7D8597"/>
</svg>
