<svg width="16" height="16" viewBox="0 0 16 16" fill="none" xmlns="http://www.w3.org/2000/svg">
<path d="M8 14C7.3125 14 6.61458 13.9167 5.90625 13.75C5.55208 14.1667 5.1901 14.5286 4.82031 14.8359C4.45052 15.1432 4.13802 15.3698 3.88281 15.5156C3.6276 15.6615 3.38021 15.7734 3.14062 15.8516C2.90104 15.9297 2.74479 15.974 2.67188 15.9844C2.59896 15.9948 2.54167 16 2.5 16C2.77083 15.4062 2.92708 14.7578 2.96875 14.0547C3.01042 13.3516 2.9375 12.7604 2.75 12.2812C1.89583 11.625 1.22396 10.8385 0.734375 9.92188C0.244792 9.00521 0 8.03125 0 7C0 6.05208 0.210938 5.14583 0.632812 4.28125C1.05469 3.41667 1.6224 2.67188 2.33594 2.04688C3.04948 1.42188 3.90104 0.924479 4.89062 0.554688C5.88021 0.184896 6.91667 0 8 0C9.08333 0 10.1198 0.184896 11.1094 0.554688C12.099 0.924479 12.9505 1.42188 13.6641 2.04688C14.3776 2.67188 14.9453 3.41667 15.3672 4.28125C15.7891 5.14583 16 6.05208 16 7C16 7.94792 15.7891 8.85417 15.3672 9.71875C14.9453 10.5833 14.3776 11.3281 13.6641 11.9531C12.9505 12.5781 12.099 13.0755 11.1094 13.4453C10.1198 13.8151 9.08333 14 8 14ZM7 11.5C7 11.6354 7.04688 11.7526 7.14062 11.8516C7.23438 11.9505 7.35417 12 7.5 12H8.5C8.63542 12 8.7526 11.9505 8.85156 11.8516C8.95052 11.7526 9 11.6354 9 11.5V10.5C9 10.3542 8.95052 10.2344 8.85156 10.1406C8.7526 10.0469 8.63542 10 8.5 10H7.5C7.35417 10 7.23438 10.0469 7.14062 10.1406C7.04688 10.2344 7 10.3542 7 10.5V11.5ZM8 2C7.11458 2 6.32292 2.19531 5.625 2.58594C4.92708 2.97656 4.44792 3.47917 4.1875 4.09375L6 5C6 4.71875 6.19531 4.48177 6.58594 4.28906C6.97656 4.09635 7.44792 4 8 4C8.55208 4 9.02344 4.09635 9.41406 4.28906C9.80469 4.48177 10 4.71615 10 4.99219C10 5.26823 9.80469 5.50521 9.41406 5.70312C9.02344 5.90104 8.55208 6 8 6C7.71875 6 7.48177 6.09635 7.28906 6.28906C7.09635 6.48177 7 6.71875 7 7V8.5C7 8.63542 7.04688 8.7526 7.14062 8.85156C7.23438 8.95052 7.35417 9 7.5 9H8.5C8.63542 9 8.7526 8.95052 8.85156 8.85156C8.95052 8.7526 9 8.63542 9 8.5V7.89062C9.86458 7.72396 10.5807 7.3724 11.1484 6.83594C11.7161 6.29948 12 5.6875 12 5C12 4.16667 11.6094 3.45833 10.8281 2.875C10.0469 2.29167 9.10417 2 8 2Z" fill="#7D8597"/>
</svg>
