<svg width="537" height="579" viewBox="0 0 537 579" fill="none" xmlns="http://www.w3.org/2000/svg">
<path fill-rule="evenodd" clip-rule="evenodd" d="M508.724 271.163C523.831 244.922 532.436 214.707 532.436 182.549C532.436 81.7302 447.853 0 343.514 0C274.386 0 213.929 35.8757 180.998 89.4097C172.417 87.9328 163.594 87.1633 154.591 87.1633C69.213 87.1633 0 156.376 0 241.755C0 272.302 8.86012 300.78 24.1507 324.759C13.075 340.618 6.57836 359.912 6.57836 380.723C6.57836 434.765 50.3887 478.576 104.431 478.576C115.553 478.576 126.242 476.72 136.204 473.302C156.695 534.664 214.617 578.896 282.87 578.896C365.49 578.896 432.972 514.083 437.246 432.527L437.461 432.527C491.958 432.527 536.136 389.821 536.136 337.141C536.136 311.541 525.704 288.296 508.724 271.163ZM418.541 350.137C430.603 372.155 437.461 397.428 437.461 424.304C437.461 427.063 437.389 429.804 437.246 432.527C392.906 432.436 355.434 404.074 343.092 365.099C343.232 365.099 343.373 365.099 343.514 365.099C370.173 365.099 395.542 359.763 418.541 350.137ZM396.301 319.271C404.917 328.571 412.403 338.932 418.541 350.137C456.844 334.105 488.57 306.171 508.724 271.163C490.763 253.04 465.475 241.755 437.461 241.755C437.461 189.074 393.282 146.368 338.786 146.368C319.534 146.368 301.57 151.698 286.387 160.914C263.582 123.814 225.551 97.0777 180.998 89.4097C164.224 116.677 154.591 148.527 154.591 182.549C154.591 192.687 155.447 202.632 157.091 212.321C125.392 225.07 100.577 251.325 89.7697 283.961C62.6564 288.034 39.1849 303.232 24.1507 324.759C43.0038 354.325 71.6329 377.051 105.484 388.383C112.021 397.556 119.851 405.744 128.708 412.68C128.423 416.518 128.278 420.394 128.278 424.304C128.278 441.43 131.063 457.905 136.204 473.302C156.117 466.469 173.13 453.393 184.904 436.41C190.051 437.103 195.304 437.461 200.64 437.461C250.509 437.461 293.076 406.199 309.813 362.203C320.615 364.082 331.736 365.075 343.092 365.099C340.292 356.257 338.786 346.869 338.786 337.141C360.247 337.141 380.108 330.518 396.301 319.271ZM353.62 286.817C371.035 259.763 402.072 241.755 437.461 241.755C437.461 273.689 421.227 301.958 396.301 319.271C384.125 306.127 369.693 295.104 353.62 286.817ZM306.577 271.519C323.291 274.092 339.123 279.341 353.62 286.817C344.217 301.424 338.786 318.67 338.786 337.141C331.148 337.141 323.712 336.302 316.573 334.714C317.123 330.118 317.406 325.44 317.406 320.695C317.406 303.127 313.526 286.465 306.577 271.519ZM306.328 271.481L306.577 271.519C306.516 271.39 306.456 271.26 306.395 271.131C308.225 261.62 309.183 251.799 309.183 241.755C309.183 212.121 300.845 184.434 286.387 160.914C266.893 172.745 251.982 190.983 244.813 212.574C231.187 207.001 216.272 203.929 200.64 203.929C185.246 203.929 170.549 206.908 157.091 212.321C162.438 243.817 176.127 272.6 195.894 296.482C188.556 301.485 181.672 307.103 175.314 313.262C157.489 294.539 132.323 282.869 104.431 282.869C99.4484 282.869 94.5524 283.242 89.7697 283.961C85.9446 295.511 83.8742 307.861 83.8742 320.695C83.8742 345.927 91.8773 369.29 105.484 388.383C113.745 391.149 122.317 393.236 131.133 394.578C129.98 400.498 129.165 406.539 128.708 412.68C144.635 425.153 163.883 433.578 184.904 436.41C194.394 422.723 200.481 406.498 201.943 388.96C226.516 381.061 248.407 367.181 265.902 349.033C279.733 355.062 294.45 359.53 309.813 362.203C313.127 353.491 315.428 344.281 316.573 334.714C305.718 332.3 295.546 328.155 286.387 322.596C295.884 307.145 302.74 289.898 306.328 271.481ZM245.947 274.15C227.792 278.599 210.896 286.254 195.894 296.482C214.483 318.94 238.447 337.064 265.902 349.033C273.64 341.006 280.517 332.144 286.387 322.596C267.868 311.356 253.485 294.334 245.947 274.15ZM245.947 274.15C257.778 271.25 270.144 269.713 282.87 269.713C290.844 269.713 298.678 270.317 306.328 271.481C306.35 271.365 306.373 271.248 306.395 271.131C293.985 244.696 271.954 223.674 244.813 212.574C241.759 221.771 240.11 231.577 240.11 241.755C240.11 253.128 242.169 264.036 245.947 274.15ZM201.943 388.96C202.169 386.244 202.285 383.497 202.285 380.723C202.285 354.572 192.026 330.816 175.314 313.262C153.076 334.806 137.29 362.971 131.133 394.578C138.783 395.742 146.617 396.346 154.591 396.346C171.108 396.346 187.02 393.756 201.943 388.96Z" fill="#2459DA"/>
</svg>
