<svg width="153" height="67" viewBox="0 0 153 67" fill="none" xmlns="http://www.w3.org/2000/svg">
<path d="M22.7051 18.9951C22.7051 19.695 22.5708 20.3501 22.3022 20.9604C22.0418 21.5627 21.6838 22.0916 21.228 22.5474C20.7804 22.995 20.2515 23.349 19.6411 23.6094C19.0308 23.8698 18.3838 24 17.7002 24H5.84717V21.4976H17.7002C18.042 21.4976 18.3634 21.4325 18.6646 21.3022C18.9738 21.172 19.2424 20.993 19.4702 20.7651C19.6981 20.5373 19.8771 20.2728 20.0073 19.9717C20.1375 19.6624 20.2026 19.3369 20.2026 18.9951C20.2026 18.6533 20.1375 18.3319 20.0073 18.0308C19.8771 17.7297 19.6981 17.4652 19.4702 17.2373C19.2424 17.0094 18.9738 16.8304 18.6646 16.7002C18.3634 16.57 18.042 16.5049 17.7002 16.5049H5.84717V14.0024H15.1978C15.5396 14.0024 15.861 13.9373 16.1621 13.8071C16.4714 13.6769 16.7399 13.4979 16.9678 13.27C17.1956 13.0422 17.3747 12.7777 17.5049 12.4766C17.6351 12.1673 17.7002 11.8418 17.7002 11.5C17.7002 11.1582 17.6351 10.8368 17.5049 10.5356C17.3747 10.2264 17.1956 9.95785 16.9678 9.72998C16.7399 9.50212 16.4714 9.32308 16.1621 9.19287C15.861 9.06266 15.5396 8.99756 15.1978 8.99756H4.60205V24H2.09961V6.49512H15.1978C15.8813 6.49512 16.5283 6.62939 17.1387 6.89795C17.749 7.15837 18.278 7.51644 18.7256 7.97217C19.1813 8.41976 19.5394 8.94873 19.7998 9.55908C20.0684 10.1694 20.2026 10.8164 20.2026 11.5C20.2026 12.029 20.1253 12.5295 19.9707 13.0015C19.8161 13.4653 19.6086 13.8966 19.3481 14.2954C19.8364 14.4663 20.284 14.7064 20.6909 15.0156C21.106 15.3249 21.46 15.6829 21.7529 16.0898C22.054 16.4967 22.286 16.9484 22.4487 17.4448C22.6196 17.9331 22.7051 18.4499 22.7051 18.9951ZM44.3115 6.49512L44.2871 15.2476C44.2871 16.0614 44.1813 16.8426 43.9697 17.5913C43.7663 18.3319 43.4733 19.0277 43.0908 19.6787C42.7165 20.3216 42.2607 20.9116 41.7236 21.4487C41.1947 21.9777 40.6047 22.4334 39.9536 22.8159C39.3107 23.1903 38.619 23.4832 37.8784 23.6948C37.1379 23.8983 36.3647 24 35.5591 24H33.7158C32.9102 24 32.133 23.8983 31.3843 23.6948C30.6437 23.4832 29.9479 23.1862 29.2969 22.8037C28.654 22.4212 28.068 21.9655 27.5391 21.4365C27.0101 20.8994 26.5544 20.3094 26.1719 19.6665C25.7975 19.0155 25.5046 18.3197 25.293 17.5791C25.0895 16.8304 24.9878 16.0532 24.9878 15.2476V6.49512H27.4902V15.2476C27.4902 16.1102 27.653 16.924 27.9785 17.689C28.304 18.4458 28.7476 19.109 29.3091 19.6787C29.8787 20.2402 30.542 20.6838 31.2988 21.0093C32.0557 21.3348 32.8613 21.4976 33.7158 21.4976H35.5591C36.4217 21.4976 37.2314 21.3348 37.9883 21.0093C38.7451 20.6838 39.4043 20.2402 39.9658 19.6787C40.5273 19.109 40.9709 18.4458 41.2964 17.689C41.6219 16.924 41.7847 16.1102 41.7847 15.2476V6.49512H44.2871H44.3115ZM68.5303 18.9951C68.5303 19.695 68.396 20.3501 68.1274 20.9604C67.867 21.5627 67.509 22.0916 67.0532 22.5474C66.6056 22.995 66.0767 23.349 65.4663 23.6094C64.856 23.8698 64.209 24 63.5254 24H51.6724V21.4976H63.5254C63.8672 21.4976 64.1886 21.4325 64.4897 21.3022C64.799 21.172 65.0675 20.993 65.2954 20.7651C65.5233 20.5373 65.7023 20.2728 65.8325 19.9717C65.9627 19.6624 66.0278 19.3369 66.0278 18.9951C66.0278 18.6533 65.9627 18.3319 65.8325 18.0308C65.7023 17.7297 65.5233 17.4652 65.2954 17.2373C65.0675 17.0094 64.799 16.8304 64.4897 16.7002C64.1886 16.57 63.8672 16.5049 63.5254 16.5049H51.6724V14.0024H61.0229C61.3647 14.0024 61.6862 13.9373 61.9873 13.8071C62.2965 13.6769 62.5651 13.4979 62.793 13.27C63.0208 13.0422 63.1999 12.7777 63.3301 12.4766C63.4603 12.1673 63.5254 11.8418 63.5254 11.5C63.5254 11.1582 63.4603 10.8368 63.3301 10.5356C63.1999 10.2264 63.0208 9.95785 62.793 9.72998C62.5651 9.50212 62.2965 9.32308 61.9873 9.19287C61.6862 9.06266 61.3647 8.99756 61.0229 8.99756H50.4272V24H47.9248V6.49512H61.0229C61.7065 6.49512 62.3535 6.62939 62.9639 6.89795C63.5742 7.15837 64.1032 7.51644 64.5508 7.97217C65.0065 8.41976 65.3646 8.94873 65.625 9.55908C65.8936 10.1694 66.0278 10.8164 66.0278 11.5C66.0278 12.029 65.9505 12.5295 65.7959 13.0015C65.6413 13.4653 65.4338 13.8966 65.1733 14.2954C65.6616 14.4663 66.1092 14.7064 66.5161 15.0156C66.9312 15.3249 67.2852 15.6829 67.5781 16.0898C67.8792 16.4967 68.1112 16.9484 68.2739 17.4448C68.4448 17.9331 68.5303 18.4499 68.5303 18.9951ZM92.0654 18.9951C92.0654 19.695 91.9312 20.3501 91.6626 20.9604C91.4022 21.5627 91.0441 22.0916 90.5884 22.5474C90.1408 22.995 89.6118 23.349 89.0015 23.6094C88.3911 23.8698 87.7441 24 87.0605 24H75.2075V21.4976H87.0605C87.4023 21.4976 87.7238 21.4325 88.0249 21.3022C88.3341 21.172 88.6027 20.993 88.8306 20.7651C89.0584 20.5373 89.2375 20.2728 89.3677 19.9717C89.4979 19.6624 89.563 19.3369 89.563 18.9951C89.563 18.6533 89.4979 18.3319 89.3677 18.0308C89.2375 17.7297 89.0584 17.4652 88.8306 17.2373C88.6027 17.0094 88.3341 16.8304 88.0249 16.7002C87.7238 16.57 87.4023 16.5049 87.0605 16.5049H75.2075V14.0024H84.5581C84.8999 14.0024 85.2214 13.9373 85.5225 13.8071C85.8317 13.6769 86.1003 13.4979 86.3281 13.27C86.556 13.0422 86.735 12.7777 86.8652 12.4766C86.9954 12.1673 87.0605 11.8418 87.0605 11.5C87.0605 11.1582 86.9954 10.8368 86.8652 10.5356C86.735 10.2264 86.556 9.95785 86.3281 9.72998C86.1003 9.50212 85.8317 9.32308 85.5225 9.19287C85.2214 9.06266 84.8999 8.99756 84.5581 8.99756H73.9624V24H71.46V6.49512H84.5581C85.2417 6.49512 85.8887 6.62939 86.499 6.89795C87.1094 7.15837 87.6383 7.51644 88.0859 7.97217C88.5417 8.41976 88.8997 8.94873 89.1602 9.55908C89.4287 10.1694 89.563 10.8164 89.563 11.5C89.563 12.029 89.4857 12.5295 89.3311 13.0015C89.1764 13.4653 88.9689 13.8966 88.7085 14.2954C89.1968 14.4663 89.6444 14.7064 90.0513 15.0156C90.4663 15.3249 90.8203 15.6829 91.1133 16.0898C91.4144 16.4967 91.6463 16.9484 91.8091 17.4448C91.98 17.9331 92.0654 18.4499 92.0654 18.9951ZM111.719 24H94.9951V6.49512H97.4976V21.4976H111.719V24ZM132.19 24H114.087V6.49512H132.19V8.99756H116.589V21.4976H132.19V24ZM130.066 16.5049H117.834V14.0024H130.066V16.5049ZM58.3496 36.4951L58.3252 45.2476C58.3252 46.0614 58.2194 46.8426 58.0078 47.5913C57.8044 48.3319 57.5114 49.0277 57.1289 49.6787C56.7546 50.3216 56.2988 50.9116 55.7617 51.4487C55.2327 51.9777 54.6427 52.4334 53.9917 52.8159C53.3488 53.1903 52.6571 53.4832 51.9165 53.6948C51.1759 53.8983 50.4028 54 49.5972 54H47.7539C46.9482 54 46.1711 53.8983 45.4224 53.6948C44.6818 53.4832 43.986 53.1862 43.335 52.8037C42.6921 52.4212 42.1061 51.9655 41.5771 51.4365C41.0482 50.8994 40.5924 50.3094 40.21 49.6665C39.8356 49.0155 39.5426 48.3197 39.3311 47.5791C39.1276 46.8304 39.0259 46.0532 39.0259 45.2476V36.4951H41.5283V45.2476C41.5283 46.1102 41.6911 46.924 42.0166 47.689C42.3421 48.4458 42.7856 49.109 43.3472 49.6787C43.9168 50.2402 44.5801 50.6838 45.3369 51.0093C46.0938 51.3348 46.8994 51.4976 47.7539 51.4976H49.5972C50.4598 51.4976 51.2695 51.3348 52.0264 51.0093C52.7832 50.6838 53.4424 50.2402 54.0039 49.6787C54.5654 49.109 55.009 48.4458 55.3345 47.689C55.66 46.924 55.8228 46.1102 55.8228 45.2476V36.4951H58.3252H58.3496ZM82.1655 42.7451C82.1655 43.6077 81.9987 44.4215 81.665 45.1865C81.3395 45.9434 80.8919 46.6066 80.3223 47.1763C79.7607 47.7378 79.1016 48.1813 78.3447 48.5068C77.5879 48.8324 76.7782 48.9951 75.9155 48.9951H65.8691V46.5293H75.9155C76.4364 46.5293 76.9246 46.4316 77.3804 46.2363C77.8361 46.0329 78.2308 45.7603 78.5645 45.4185C78.9062 45.0767 79.1748 44.6779 79.3701 44.2222C79.5654 43.7583 79.6631 43.266 79.6631 42.7451C79.6631 42.2243 79.5654 41.736 79.3701 41.2803C79.1748 40.8245 78.9062 40.4299 78.5645 40.0962C78.2308 39.7544 77.8361 39.4858 77.3804 39.2905C76.9246 39.0952 76.4364 38.9976 75.9155 38.9976H64.4653V54H61.9629V36.4951H75.9155C76.7782 36.4951 77.5879 36.6619 78.3447 36.9956C79.1016 37.3211 79.7607 37.7687 80.3223 38.3384C80.8919 38.8999 81.3395 39.5591 81.665 40.3159C81.9987 41.0728 82.1655 41.8825 82.1655 42.7451Z" fill="#4D4E51"/>
<circle cx="26.4758" cy="53.492" r="11.0081" stroke="#7499F0" stroke-width="5"/>
<circle cx="10.5551" cy="39.7325" r="8.0551" stroke="#3464DC" stroke-width="5"/>
</svg>
