<svg width="585" height="645" viewBox="0 0 585 645" fill="none" xmlns="http://www.w3.org/2000/svg">
<path fill-rule="evenodd" clip-rule="evenodd" d="M184.556 224.254C240.403 146.365 346.897 128.914 422.015 182.774C426.486 185.979 430.753 189.371 434.814 192.933C444.81 173.086 450.662 152.049 452.593 130.946C350.224 61.0943 209.425 86.6017 135.795 189.293C134.111 191.642 132.476 194.011 130.891 196.4C140.356 215.609 153.566 233.143 170.287 247.808C174.353 239.735 179.104 231.858 184.556 224.254ZM474.21 244.341C501.065 298.841 497.769 366.821 458.935 420.984C403.088 498.873 296.594 516.324 221.476 462.465C171.721 426.79 147.179 368.037 152.507 309.795C151.038 308.792 149.577 307.77 148.124 306.728C129.794 293.586 114.013 278.198 100.878 261.192C74.6323 352.375 105.976 453.48 186.514 511.226C289.212 584.86 433.01 560.11 507.696 455.946C569.052 370.372 564.678 257.824 504.222 179.548C497.756 202.014 487.793 223.877 474.21 244.341Z" fill="#3464DC"/>
</svg>
