<svg width="573" height="816" viewBox="0 0 573 816" fill="none" xmlns="http://www.w3.org/2000/svg">
<path fill-rule="evenodd" clip-rule="evenodd" d="M336.769 151.08C481.938 108.643 632.078 190.462 673.339 331.61C677.667 346.414 680.634 361.314 682.311 376.176C702.219 365.018 720.346 351.594 736.452 336.361C734.868 329.157 733.029 321.958 730.929 314.774C680.145 141.054 496.136 41.9815 319.934 93.4907C306.105 97.5333 292.735 102.383 279.862 107.973C276.642 130.04 276.188 152.676 278.752 175.402C296.702 165.342 316.099 157.123 336.769 151.08ZM681.201 443.605C666.451 544.684 593.661 633.821 487.003 665C341.833 707.437 191.694 625.618 150.432 484.471C121.562 385.71 153.247 282.71 224.611 215.217C219.357 191.327 216.91 167.379 217.069 143.735C106.953 223.38 53.0166 365.069 92.8428 501.306C143.627 675.027 327.635 774.099 503.838 722.59C648.592 680.274 743.045 549.496 743.994 407.844C724.717 421.786 703.719 433.828 681.201 443.605Z" fill="#7499F0" fill-opacity="0.42"/>
</svg>
